<?xml version="1.0" standalone="no"?>
<!DOCTYPE svg PUBLIC "-//W3C//DTD SVG 1.1//EN" "http://www.w3.org/Graphics/SVG/1.1/DTD/svg11.dtd" >
<svg xmlns="http://www.w3.org/2000/svg">
<metadata>Generated by IcoMoon</metadata>
<defs>
<font id="icomoon" horiz-adv-x="1024">
<font-face units-per-em="1024" ascent="960" descent="-64" />
<missing-glyph horiz-adv-x="1024" />
<glyph unicode="&#x20;" horiz-adv-x="512" d="" />
<glyph unicode="&#xe901;" d="M681.63 368.726v-79.826c0-16.521 13.413-29.935 29.935-29.935s29.935 13.414 29.935 29.935v79.826c0 16.521-13.414 29.935-29.935 29.935s-29.935-13.414-29.935-29.935zM681.63 688.027v-79.825c0-16.522 13.413-29.935 29.935-29.935s29.935 13.413 29.935 29.935v79.825c0 16.521-13.414 29.935-29.935 29.935s-29.935-13.414-29.935-29.935zM682.746 820.241v27.437c0 16.532-13.402 29.935-29.935 29.935h-280.505c-16.532 0-29.935-13.402-29.935-29.935v-27.437c0-28.612 10.211-55.969 27.985-76.201 19.072-21.711 45.103-33.559 72.076-33.559h140.253c26.973 0 53.004 11.848 72.076 33.559 17.774 20.232 27.985 47.59 27.985 76.201v0zM622.825 817.744c-0.518-12.831-5.032-25.073-13.042-34.191-7.231-8.23-16.871-13.202-27.096-13.203-0.002 0-140.254 0-140.254 0-10.228 0.001-19.867 4.972-27.098 13.203-8.010 9.118-12.524 21.36-13.042 34.191h220.533z" />
<glyph unicode="&#xe902;" d="M271.436 38.417h478.952c16.521 0 29.935 13.414 29.935 29.935s-13.414 29.935-29.935 29.935h-478.952c-16.521 0-29.935-13.413-29.935-29.935s13.414-29.935 29.935-29.935zM651.817 528.559l-49.781 49.781c-39.305 39.304-103.029 39.304-142.334 0l-99.562-99.562c-15.926-15.925-41.743-15.925-57.667-0.003-0.003 0.003-49.783 49.783-49.783 49.783-11.682 11.682-30.651 11.682-42.334 0s-11.682-30.652 0-42.335l49.781-49.781c39.305-39.304 103.030-39.304 142.335 0l99.561 99.562c15.927 15.925 41.744 15.925 57.668 0.003 0.002-0.003 49.782-49.782 49.782-49.782 11.683-11.683 30.651-11.683 42.334-0.001s11.683 30.652 0 42.335zM768.598 567.261c17.486 0 31.681-14.196 31.681-31.682s-14.195-31.681-31.681-31.681c-17.486 0-31.681 14.196-31.681 31.681s14.195 31.682 31.681 31.682zM768.598 670.536c17.486 0 31.681-14.196 31.681-31.681s-14.195-31.682-31.681-31.682c-17.486 0-31.681 14.196-31.681 31.682s14.195 31.681 31.681 31.681z" />
<glyph unicode="&#xe903;" d="M939.974 667.043c-0.001 104.705-84.881 189.585-189.586 189.585-139.121 0-339.831 0-478.952 0-104.705 0-189.585-84.88-189.586-189.585 0-97.518 0-221.786 0-319.303 0.001-104.705 84.881-189.585 189.586-189.585 139.121 0 339.831 0 478.952 0 104.705 0 189.585 84.88 189.586 189.585v319.303zM880.105 667.044v-319.303c-0.001-71.642-58.077-129.717-129.717-129.717-139.121 0-339.831 0-478.952 0-71.64 0-129.715 58.075-129.717 129.715 0 0.003 0 319.303 0 319.303 0.002 71.642 58.077 129.717 129.717 129.717 139.121 0 339.831 0 478.952 0 71.64 0 129.716-58.075 129.717-129.715zM660.584 607.173c0 29.111-11.564 57.028-32.148 77.612s-48.502 32.148-77.612 32.148c-69.56 0-169.915 0-239.475 0-29.11 0-57.028-11.564-77.612-32.148s-32.148-48.502-32.148-77.612c0-59.409 0-140.154 0-199.563 0-29.11 11.564-57.028 32.148-77.612s48.503-32.148 77.612-32.147c69.56 0 169.915 0 239.475 0 29.111-0.001 57.029 11.564 77.612 32.147s32.148 48.503 32.148 77.612v199.563zM740.409 436.9v-69.203c0-16.521 13.414-29.935 29.935-29.935s29.935 13.414 29.935 29.935v69.203c0 16.521-13.413 29.935-29.935 29.935s-29.935-13.414-29.935-29.935zM600.715 607.173v-199.563c0-13.232-5.256-25.922-14.613-35.279s-22.046-14.612-35.278-14.612h-239.476c-13.232 0-25.922 5.256-35.279 14.612s-14.613 22.047-14.613 35.279v199.563c0 13.232 5.257 25.922 14.613 35.279s22.046 14.613 35.279 14.613h239.475c13.232 0 25.923-5.257 35.279-14.613s14.613-22.046 14.613-35.279z" />
<glyph unicode="&#xe904;" d="M130.471 369.194c-15.818 0.804-28.394 13.881-28.394 29.896 0 0-0.034 0.033 0 99.781 0.002 5.256-1.911 30.032 30.338 29.935h29.532c44.087 0 79.825-35.739 79.825-79.825 0-16.532-13.402-29.935-29.935-29.935 16.532 0 29.935 13.402 29.935 29.935 0-44.087-35.738-79.825-79.825-79.825h-29.935l-1.54 0.038zM161.946 429.025h0.003c11.021 0.001 19.954 8.935 19.954 19.956 0-16.532 13.402-29.935 29.935-29.935-16.532 0-29.935 13.402-29.935 29.935 0 11.021-8.933 19.955-19.956 19.956h-0.002l0.001-39.912z" />
<glyph unicode="&#xe905;" d="M730.702 718.392c50.281 0 98.503-19.974 134.058-55.529s55.528-83.775 55.528-134.057v-159.65c0-50.281-19.974-98.503-55.528-134.058s-83.776-55.528-134.058-55.528l-519.892 0.005c-0.132 0.001-0.264 0.003-0.392 0.004l-0.353 0.005c-7.015 0.112-13.87 0.881-20.5 2.248l-0.182 0.037c-0.112 0.023-0.223 0.047-0.334 0.070l-0.234 0.050c-45.652 9.747-80.787 47.871-86.052 95.014-0.452 4.052-0.685 8.162-0.685 12.327v319.302c0.001 60.618 49.141 109.76 109.76 109.76h518.865zM527.638 658.523h-186.084v-349.236c0-16.522-13.413-29.935-29.935-29.935s-29.935 13.413-29.935 29.935v349.236h-69.848c-14.671-0.001-27.864-6.335-36.995-16.419-0.123-0.135-0.244-0.271-0.364-0.407l-0.167-0.189-0.161-0.185c-0.269-0.31-0.535-0.624-0.796-0.94-0.086-0.103-0.171-0.208-0.256-0.312l-0.136-0.169-0.188-0.234-0.186-0.235c-6.664-8.48-10.64-19.176-10.641-30.801v-319.304l0.001-0.012c0.005-27.545 22.339-49.875 49.892-49.876h315.799c5.064 17.864 14.626 34.316 27.987 47.678 20.584 20.583 48.503 32.147 77.612 32.147 5.021 0 10.075 0 15.097 0 27.553 0 49.89 22.336 49.891 49.892 0 0 0 159.649 0 159.652-0.001 27.553-22.337 49.89-49.891 49.89h-15.097c-29.11-0.001-57.028 11.564-77.612 32.147-13.361 13.362-22.922 29.814-27.987 47.678zM593.324 658.523c1.408-1.877 2.955-3.664 4.635-5.344 9.356-9.356 22.046-14.613 35.278-14.612h15.097c60.618 0 109.76-49.141 109.76-109.761 0-48.758 0-110.892 0-159.651 0-60.618-49.141-109.76-109.76-109.76h-15.097c-13.232 0-25.922-5.256-35.278-14.613-1.68-1.679-3.227-3.466-4.635-5.343h137.378c34.403 0 67.397 13.666 91.724 37.992 14.654 14.655 25.44 32.455 31.7 51.811h-33.409c-16.522 0-29.935 13.413-29.935 29.935s13.413 29.935 29.935 29.935h39.701v29.935h-39.913c-16.521 0-29.935 13.413-29.935 29.935s13.414 29.935 29.935 29.935h39.913v29.935h-39.701c-16.522 0-29.935 13.414-29.935 29.935s13.413 29.935 29.935 29.935h33.409c-6.26 19.356-17.046 37.156-31.7 51.81-24.327 24.327-57.321 37.993-91.724 37.993h-137.378zM639.152 421.124c17.486 0 31.681-14.195 31.681-31.681s-14.195-31.681-31.681-31.681c-17.485 0-31.681 14.195-31.681 31.681s14.196 31.681 31.681 31.681z" />
<glyph unicode="&#xe906;" d="M511.183 876.657c-236.806 0-429.062-192.256-429.062-429.062s192.256-429.061 429.062-429.061c236.806 0 429.061 192.255 429.061 429.061s-192.255 429.062-429.061 429.062zM181.903 48.469v80.453c0 16.521-13.414 29.935-29.935 29.935s-29.935-13.414-29.935-29.935v-80.453c0-16.522 13.413-29.935 29.935-29.935s29.935 13.413 29.935 29.935zM900.332 48.469v80.453c0 16.521-13.414 29.935-29.935 29.935s-29.935-13.414-29.935-29.935v-80.453c0-16.522 13.413-29.935 29.935-29.935s29.935 13.413 29.935 29.935zM511.183 816.788c203.763 0 369.192-165.429 369.192-369.193s-165.429-369.192-369.192-369.192c-203.763 0-369.193 165.429-369.193 369.192s165.43 369.193 369.193 369.193z" />
<glyph unicode="&#xe907;" d="M440.656 424.542c-12.906-5.648-26.961-8.642-41.324-8.642h-0.054c-27.364 0-53.607 10.87-72.957 30.219-3.334 3.334-6.415 6.872-9.231 10.583-5.89 7.762-15.19 12.171-24.928 11.82s-18.695-5.423-24.009-13.59c-17.087-26.261-26.382-57.111-26.382-88.92 0-0.018 0-0.035 0-0.054 0-43.243 17.178-84.713 47.754-115.291s72.049-47.755 115.291-47.755h0.054c43.243 0 84.714 17.178 115.291 47.755s47.755 72.048 47.755 115.291c0 0.018 0 0.035 0 0.054 0 10.070-0.932 20.045-2.75 29.811 11.194-8.314 20.692-18.897 27.799-31.208 0.009-0.015 0.018-0.031 0.027-0.046 13.682-23.698 17.39-51.861 10.307-78.292-1.219-4.554-2.743-8.992-4.548-13.285-3.777-8.982-2.947-19.241 2.228-27.499s14.043-13.479 23.773-13.997c31.285-1.668 62.651 5.708 90.198 21.613 0.015 0.009 0.031 0.017 0.046 0.026 37.448 21.622 64.775 57.234 75.967 99.002s5.334 86.274-16.288 123.722c-0.009 0.016-0.017 0.032-0.027 0.047-21.621 37.448-57.233 64.774-99.002 75.967s-86.273 5.333-123.722-16.288c-0.015-0.009-0.031-0.017-0.046-0.027-9.010-5.202-17.435-11.214-25.185-17.934 1.491 14.261 5.953 28.189 13.259 40.844 0.010 0.015 0.018 0.031 0.027 0.046 13.682 23.698 36.217 40.99 62.65 48.072 4.554 1.22 9.159 2.12 13.779 2.703 9.668 1.22 18.136 7.069 22.7 15.679s4.652 18.901 0.236 27.587c-14.199 27.928-36.269 51.403-63.817 67.307-0.015 0.010-0.031 0.018-0.046 0.027-37.449 21.622-81.954 27.48-123.723 16.288s-77.38-38.518-99.002-75.967c-0.009-0.015-0.017-0.031-0.026-0.046-21.622-37.449-27.48-81.954-16.288-123.722s38.517-77.381 75.967-99.002c0.015-0.010 0.031-0.018 0.046-0.027 9.036-5.217 18.482-9.516 28.201-12.871zM504.117 394.176c2.589-9.084 3.93-18.556 3.93-28.165 0-0.018 0-0.035 0-0.054 0-27.364-10.87-53.607-30.22-72.957s-45.592-30.22-72.957-30.22h-0.054c-27.364 0-53.607 10.871-72.956 30.22s-30.22 45.592-30.22 72.957v0.054c0 7.081 0.728 14.088 2.157 20.915 27.601-19.959 60.977-30.895 95.48-30.895h0.054c38.477 0 75.552 13.6 104.785 38.146zM665.824 296.368c3.485 33.883-3.732 68.255-20.983 98.135-0.010 0.015-0.018 0.031-0.027 0.046-19.239 33.323-49.554 58.63-85.428 71.674 6.57 6.784 14.103 12.681 22.426 17.487 0.015 0.009 0.031 0.017 0.046 0.026 23.699 13.683 51.861 17.39 78.292 10.308s48.967-24.375 62.65-48.072c0.009-0.015 0.017-0.031 0.027-0.047 13.682-23.698 17.39-51.86 10.307-78.291s-24.375-48.968-48.072-62.65c-0.015-0.009-0.031-0.018-0.046-0.027-6.133-3.54-12.565-6.413-19.193-8.589zM562.627 655.688c-31.085-13.924-57.244-37.36-74.496-67.24-0.009-0.015-0.017-0.031-0.026-0.046-19.237-33.319-25.997-72.222-19.358-109.817-9.16 2.296-18.034 5.871-26.357 10.676-0.015 0.010-0.031 0.018-0.046 0.027-23.698 13.682-40.991 36.217-48.072 62.65s-3.375 54.594 10.307 78.292c0.010 0.015 0.018 0.031 0.027 0.046 13.682 23.698 36.217 40.99 62.65 48.072s54.594 3.375 78.292-10.307c0.015-0.010 0.031-0.018 0.046-0.027 6.133-3.541 11.836-7.675 17.033-12.326z" />
<glyph unicode="&#xe908;" d="M352.617 19.919h319.302c16.521 0 29.935 13.414 29.935 29.935s-13.414 29.935-29.935 29.935h-319.302c-16.521 0-29.935-13.413-29.935-29.935s13.414-29.935 29.935-29.935zM113.141 339.221h718.428c16.522 0 29.935 13.413 29.935 29.935s-13.413 29.935-29.935 29.935h-718.428c-16.521 0-29.935-13.414-29.935-29.935s13.414-29.935 29.935-29.935z" />
<glyph unicode="&#xe909;" d="M941.33 648.545c-0.001 104.705-84.881 189.585-189.586 189.585-139.12 0-339.831 0-478.952 0-104.705 0-189.585-84.88-189.586-189.585 0-97.518 0-221.786 0-319.303 0.001-104.705 84.881-189.585 189.586-189.585 139.121 0 339.832 0 478.952 0 104.705 0 189.585 84.88 189.586 189.585v319.303zM881.461 648.546v-319.303c-0.001-71.642-58.077-129.717-129.717-129.717-139.12 0-339.831 0-478.952 0-71.64 0-129.715 58.075-129.717 129.715 0 0.003 0 319.303 0 319.303 0.002 71.642 58.077 129.717 129.717 129.717 139.121 0 339.832 0 478.952 0 71.64 0 129.716-58.075 129.717-129.715zM512.268 302.801c17.486 0 31.681-14.195 31.681-31.681s-14.195-31.681-31.681-31.681c-17.486 0-31.681 14.195-31.681 31.681s14.195 31.681 31.681 31.681z" />
<glyph unicode="&#xe90a;" d="M827.403 345.338c0 24.474-9.722 47.945-27.027 65.251s-40.777 27.028-65.251 27.028h-0.103c-24.474 0-47.945-9.723-65.251-27.028s-27.027-40.777-27.027-65.251c0-41.258 0-95.152 0-136.409 0-24.474 9.722-47.945 27.027-65.251s40.777-27.028 65.251-27.028h0.103c24.474 0 47.945 9.723 65.251 27.028s27.027 40.777 27.027 65.251v136.409zM381.724 345.338c0.001 24.474-9.722 47.945-27.027 65.251s-40.776 27.028-65.251 27.028h-0.103c-24.474 0-47.945-9.723-65.251-27.028s-27.027-40.777-27.027-65.251c0-41.258 0-95.152 0-136.409 0-24.474 9.722-47.945 27.027-65.251s40.777-27.028 65.251-27.028h0.103c24.474 0 47.945 9.723 65.251 27.028s27.028 40.777 27.027 65.251v136.409zM767.534 345.338v-136.409c0-8.595-3.415-16.839-9.493-22.917s-14.32-9.492-22.915-9.493c-0.003 0-0.104 0-0.104 0-8.596 0.001-16.839 3.415-22.917 9.493s-9.492 14.322-9.492 22.917v136.409c0 8.595 3.414 16.839 9.492 22.917s14.321 9.492 22.916 9.493c0.003 0 0.103 0 0.103 0 8.597-0.001 16.84-3.415 22.917-9.493s9.493-14.322 9.493-22.917zM321.855 345.338v-136.409c0-8.595-3.414-16.839-9.492-22.917s-14.321-9.492-22.915-9.493c-0.004 0-0.104 0-0.104 0-8.597 0.001-16.84 3.415-22.917 9.493s-9.493 14.322-9.493 22.917v136.409c0 8.595 3.415 16.839 9.493 22.917s14.32 9.492 22.915 9.493c0.004 0 0.104 0 0.104 0 8.596-0.001 16.839-3.415 22.917-9.493s9.492-14.322 9.492-22.917z" />
<glyph unicode="&#xe90b;" d="M906.755 275.36v212.149c-0.001 192.877-156.359 349.235-349.237 349.235-30.050 0-60.518 0-90.569 0-192.878 0-349.236-156.358-349.236-349.235 0-112.793 0-212.149 0-212.149 0-16.522 13.413-29.935 29.935-29.935s29.935 13.413 29.935 29.935v212.147c0.001 159.815 129.555 289.368 289.367 289.368 30.050 0 60.518 0 90.569 0 159.813 0 289.366-129.553 289.368-289.365 0-0.003 0-212.15 0-212.15 0-16.522 13.413-29.935 29.935-29.935s29.935 13.413 29.935 29.935zM423.099 687.739h160.444c16.521 0 29.935 13.414 29.935 29.935s-13.414 29.935-29.935 29.935h-160.444c-16.522 0-29.935-13.413-29.935-29.935s13.413-29.935 29.935-29.935z" />
<glyph unicode="&#xe90c;" d="M512.221 876.584c-236.806 0-429.062-192.255-429.062-429.061s192.256-429.062 429.062-429.062c236.806 0 429.061 192.256 429.061 429.062s-192.255 429.061-429.061 429.061zM512.221 816.715c203.763 0 369.192-165.429 369.192-369.192s-165.429-369.193-369.192-369.193c-203.764 0-369.193 165.429-369.193 369.193s165.429 369.192 369.193 369.192zM623.633 379.315c-22.867-38.47-64.841-64.29-112.803-64.29-72.36 0-131.106 58.746-131.106 131.106s58.746 131.106 131.106 131.106c72.36 0 131.106-58.746 131.106-131.106 0-16.521 13.414-29.935 29.935-29.935s29.935 13.414 29.935 29.935c0 105.402-85.573 190.976-190.976 190.976s-190.976-85.573-190.976-190.976c0-105.403 85.573-190.976 190.976-190.976 69.834 0 130.972 37.555 164.267 93.568 8.441 14.202 3.765 32.586-10.437 41.027s-32.585 3.766-41.027-10.436z" />
<glyph unicode="&#xe90d;" d="M881.413 447.523c0 16.521 13.414 29.935 29.935 29.935s29.935-13.414 29.935-29.935c0-236.806-192.255-429.062-429.061-429.062s-429.062 192.256-429.062 429.062c0 236.806 192.256 429.061 429.062 429.061 118.404 0 225.672-48.059 303.337-125.724 11.683-11.683 11.683-30.652 0-42.334s-30.652-11.683-42.334 0c-66.827 66.826-159.122 108.189-261.003 108.189-203.764 0-369.193-165.429-369.193-369.192s165.429-369.193 369.193-369.193c203.763 0 369.192 165.429 369.192 369.193zM742.193 238.811c3.553-0.547 7.191-0.83 10.894-0.83 39.317 0 71.238 31.92 71.238 71.237s-31.921 71.237-71.238 71.237c-16.442 0-31.591-5.583-43.655-14.956l-128.226 69.531c0.567 3.619 0.861 7.326 0.861 11.1 0 39.164-31.672 70.988-70.777 71.236l-0.461 0.001c-39.317 0-71.237-31.92-71.237-71.237s31.92-71.237 71.237-71.237l0.461 0.001c13.288 0.084 25.719 3.815 36.337 10.24l134.289-72.819c-0.045-1.027-0.067-2.059-0.067-3.098 0-13.36 3.686-25.866 10.096-36.558-45.672-47.667-109.951-77.373-181.116-77.373-138.445 0-250.845 112.4-250.845 250.845s112.4 250.845 250.845 250.845c138.445 0 250.845-112.4 250.845-250.845 0-16.521 13.414-29.935 29.935-29.935s29.935 13.414 29.935 29.935c0 171.488-139.226 310.714-310.714 310.714s-310.714-139.226-310.714-310.714c0-171.488 139.226-310.714 310.714-310.714 91.86 0 174.467 39.941 231.363 103.392zM510.83 457.5c-6.274 0-11.368-5.094-11.368-11.368s5.094-11.368 11.368-11.368l0.293 0.003c3.476 0.088 6.566 1.741 8.592 4.278 0.129 0.175 0.261 0.349 0.393 0.52 1.316 1.855 2.090 4.122 2.090 6.567 0 6.177-4.936 11.209-11.075 11.365l-0.293 0.004z" />
<glyph unicode="&#xe90e;" d="M783.924 634.697h-95.594c-16.521 0-29.935-13.414-29.935-29.935s13.414-29.935 29.935-29.935h66.775v-198.481c0-14.347-5.699-28.105-15.844-38.249s-23.903-15.844-38.248-15.844h-43.855c-34.455 0-67.060-15.589-88.694-42.405l-50.383-62.452c-10.271-12.731-25.747-20.128-42.101-20.128-16.532 0-29.935-13.403-29.935-29.935s13.402-29.935 29.935-29.935h351.072c30.225-0.001 59.212 12.006 80.584 33.378s33.379 50.359 33.378 80.584c0 77.486 0 191.906 0 269.392 0.001 30.225-12.006 59.211-33.378 80.583s-50.358 33.379-80.583 33.379c0 0-42.014 0-42.014 0-0.374 0-0.746-0.007-1.115-0.020zM578.765 197.269l36.293 44.987c10.271 12.73 25.746 20.127 42.099 20.128 0.003 0 43.856 0 43.856 0 30.224 0 59.211 12.006 80.583 33.379s33.378 50.358 33.378 80.583v198.501h12.079c14.347 0 28.105-5.699 38.249-15.844s15.843-23.903 15.843-38.249v-269.393c0-14.347-5.699-28.105-15.843-38.249s-23.904-15.844-38.249-15.843h-248.288zM392.215 668.071c-121.157 0-219.52-98.363-219.52-219.52s98.363-219.52 219.52-219.52c121.156 0 219.519 98.363 219.519 219.52s-98.363 219.52-219.519 219.52zM392.215 608.202c88.113 0 159.65-71.537 159.65-159.651s-71.537-159.651-159.65-159.651c-88.114 0-159.651 71.537-159.651 159.651s71.537 159.651 159.651 159.651z" />
<glyph unicode="&#xe90f;" d="M814.974 649.942c0 29.11-11.564 57.028-32.148 77.612s-48.502 32.148-77.612 32.148c-129.336 0-383.225 0-512.562 0-60.618 0-109.76-49.141-109.76-109.761 0-106.989 0-295.792 0-402.782 0-60.619 49.141-109.76 109.76-109.76h285.339c33.186 0 64.589 15.014 85.426 40.842l52.905 65.577c9.471 11.741 23.745 18.565 38.83 18.565h50.064c60.619 0.001 109.76 49.141 109.76 109.761v277.796zM755.105 649.942v-277.796c0-27.554-22.336-49.891-49.89-49.892-0.003 0-50.064 0-50.064 0-33.188 0-64.591-15.015-85.427-40.842l-52.905-65.578c-9.471-11.739-23.745-18.564-38.829-18.564-0.003 0-285.34 0-285.34 0-27.554 0.001-49.89 22.336-49.891 49.889 0 0.004 0 402.784 0 402.784 0.001 27.555 22.337 49.892 49.891 49.892 129.337 0 383.226 0 512.562 0 13.232 0 25.922-5.257 35.279-14.613s14.613-22.047 14.613-35.279zM374.192 418.588c0.756-2.831 1.149-5.771 1.149-8.753 0-0.009 0-0.017 0-0.025 0-9.007-3.579-17.645-9.947-24.014s-15.007-9.946-24.014-9.946h-0.025c-9.007 0-17.645 3.578-24.014 9.946-11.682 11.683-30.651 11.683-42.334 0s-11.683-30.651 0-42.334c17.597-17.597 41.462-27.481 66.347-27.481h0.025c24.885 0 48.751 9.885 66.347 27.481s27.482 41.462 27.482 66.347c0 0.008 0 0.016 0 0.025 0 13.146-2.759 26.007-7.955 37.808 2.034 2.002 4.329 3.756 6.842 5.207 0.008 0.005 0.015 0.009 0.022 0.013 7.8 4.503 17.070 5.723 25.77 3.393s16.118-8.023 20.621-15.824c0.004-0.007 0.009-0.014 0.012-0.022 4.503-7.799 5.723-17.069 3.393-25.769-4.276-15.959 5.208-32.387 21.167-36.663s32.386 5.209 36.662 21.167c6.441 24.038 3.069 49.648-9.373 71.199-0.005 0.008-0.009 0.015-0.013 0.022-12.442 21.552-32.936 37.277-56.973 43.718s-49.648 3.069-71.199-9.374c-0.007-0.004-0.014-0.008-0.022-0.012-11.331-6.542-21.052-15.31-28.661-25.652-2.89 0.762-5.693 1.908-8.328 3.429-0.007 0.004-0.014 0.009-0.022 0.012-7.8 4.503-13.491 11.921-15.823 20.621s-1.11 17.969 3.393 25.77c0.004 0.007 0.009 0.014 0.012 0.022 4.503 7.8 11.921 13.491 20.621 15.823 15.959 4.276 25.443 20.703 21.167 36.662s-20.704 25.443-36.662 21.167c-24.038-6.441-44.531-22.166-56.973-43.717-0.005-0.008-0.009-0.015-0.013-0.022-12.442-21.551-15.814-47.162-9.373-71.199s22.166-44.531 43.717-56.973c0.008-0.005 0.015-0.009 0.022-0.013 11.454-6.612 24.054-10.663 36.954-12.040z" />
<glyph unicode="&#xe910;" d="M392.595 618.179h239.476c16.522 0 29.935 13.414 29.935 29.935s-13.413 29.935-29.935 29.935h-239.476c-16.521 0-29.935-13.413-29.935-29.935s13.414-29.935 29.935-29.935z" />
<glyph unicode="&#xe911;" d="M222.967 179.14c0 153.763 0 385.058 0 538.821 0 50.281 19.974 98.503 55.528 134.057s83.776 55.529 134.058 55.529c63.395 0 136.168 0 199.563 0 50.281 0 98.503-19.974 134.057-55.529s55.528-83.775 55.529-134.055v-538.823l-0.001-0.588-0.003-0.589-0.005-0.589-0.007-0.588-0.008-0.588-0.022-1.176-0.013-0.588-0.015-0.587-0.017-0.587-0.019-0.587-0.021-0.586-0.023-0.587-0.025-0.586-0.026-0.586-0.029-0.585-0.030-0.586-0.032-0.585-0.034-0.585-0.035-0.584-0.037-0.584-0.038-0.584-0.041-0.584-0.042-0.584-0.045-0.583-0.046-0.582-0.048-0.583-0.050-0.582-0.051-0.582-0.054-0.582-0.055-0.581-0.057-0.581-0.058-0.581-0.060-0.58-0.062-0.58-0.064-0.58-0.065-0.58-0.068-0.58-0.069-0.579-0.071-0.58-0.073-0.579-0.075-0.578-0.076-0.578-0.079-0.578-0.080-0.578-0.081-0.577-0.083-0.576-0.085-0.577-0.087-0.576-0.088-0.575-0.091-0.575-0.092-0.575-0.094-0.574-0.096-0.574-0.097-0.574-0.1-0.573-0.101-0.573-0.102-0.572-0.104-0.572-0.105-0.571-0.108-0.571-0.109-0.571-0.111-0.57-0.113-0.569-0.115-0.57-0.117-0.568-0.118-0.569-0.12-0.567-0.122-0.568-0.124-0.567-0.125-0.566-0.126-0.566-0.128-0.565-0.13-0.565-0.132-0.565-0.134-0.564-0.135-0.563-0.137-0.563-0.139-0.563-0.14-0.562-0.143-0.561-0.144-0.561-0.146-0.56-0.147-0.56-0.149-0.56-0.15-0.559-0.152-0.558-0.154-0.558-0.155-0.558-0.157-0.557-0.16-0.558-0.16-0.556-0.163-0.556-0.164-0.555-0.166-0.555-0.168-0.555-0.17-0.553-0.171-0.553-0.172-0.553-0.174-0.552-0.176-0.551-0.177-0.551-0.179-0.55-0.181-0.55-0.182-0.549-0.185-0.548-0.186-0.548-0.187-0.547-0.19-0.546-0.191-0.546-0.193-0.545-0.194-0.545-0.195-0.544-0.197-0.543-0.199-0.543-0.2-0.542-0.203-0.541-0.204-0.541-0.205-0.539-0.208-0.54-0.209-0.538-0.211-0.538-0.212-0.538-0.215-0.536-0.432-1.072-0.219-0.535-0.22-0.535-0.221-0.534-0.224-0.533-0.225-0.533-0.227-0.532-0.228-0.531-0.231-0.531-0.232-0.53-0.233-0.529-0.236-0.528-0.237-0.528-0.238-0.527-0.24-0.526-0.241-0.525-0.242-0.525-0.245-0.524-0.246-0.523-0.247-0.522-0.25-0.522-0.251-0.521-0.253-0.52-0.254-0.519-0.256-0.518-0.258-0.518-0.259-0.517-0.261-0.516-0.262-0.515-0.263-0.515-0.265-0.513-0.267-0.513-0.268-0.512-0.27-0.512-0.272-0.512-0.273-0.51-0.275-0.51-0.277-0.509-0.278-0.508-0.28-0.507-0.281-0.506-0.283-0.506-0.284-0.504-0.286-0.504-0.287-0.503-0.288-0.502-0.29-0.501-0.292-0.5-0.294-0.5-0.295-0.498-0.297-0.498-0.298-0.496-0.3-0.496-0.302-0.495-0.303-0.494-0.305-0.493-0.306-0.492-0.307-0.492-0.309-0.49-0.31-0.489-0.312-0.489-0.314-0.488-0.315-0.488-0.317-0.487-0.318-0.485-0.32-0.485-0.321-0.484-0.324-0.483-0.324-0.482-0.326-0.481-0.328-0.48-0.33-0.479-0.33-0.478-0.331-0.477-0.334-0.476-0.334-0.475-0.337-0.474-0.338-0.473-0.339-0.472-0.341-0.471-0.343-0.47-0.344-0.469-0.346-0.468-0.348-0.467-0.348-0.466-0.351-0.466-0.352-0.465-0.353-0.464-0.354-0.463-0.356-0.461-0.357-0.461-0.359-0.46-0.36-0.458-0.362-0.458-0.364-0.457-0.365-0.455-0.366-0.454-0.368-0.454-0.37-0.452-0.371-0.451-0.373-0.45-0.375-0.449-0.375-0.448-0.377-0.447-0.378-0.445-0.379-0.445-0.381-0.444-0.383-0.444-0.384-0.442-0.385-0.441-0.387-0.44-0.389-0.439-0.39-0.437-0.392-0.437-0.393-0.435-0.395-0.435-0.396-0.433-0.397-0.432-0.799-0.86-0.805-0.856-0.405-0.426-0.405-0.425-0.408-0.424-0.408-0.422-0.822-0.843-0.414-0.42-0.414-0.418-0.417-0.418-0.417-0.416-0.419-0.415-0.42-0.413-0.421-0.412-0.421-0.41-0.423-0.409-0.424-0.407-0.425-0.406-0.426-0.404-0.427-0.403-0.428-0.401-0.43-0.4-0.431-0.398-0.432-0.398-0.433-0.396-0.434-0.395-0.436-0.393-0.436-0.391-0.438-0.391-0.439-0.388-0.44-0.387-0.441-0.386-0.442-0.384-0.443-0.382-0.444-0.381-0.444-0.38-0.446-0.378-0.447-0.376-0.447-0.375-0.449-0.374-0.45-0.373-0.452-0.371-0.452-0.37-0.453-0.368-0.454-0.367-0.456-0.365-0.456-0.363-0.458-0.362-0.459-0.361-0.459-0.359-0.461-0.357-0.462-0.356-0.463-0.354-0.464-0.353-0.464-0.352-0.466-0.35-0.466-0.349-0.467-0.347-0.468-0.346-0.469-0.345-0.471-0.342-0.471-0.341-0.472-0.34-0.473-0.338-0.474-0.336-0.475-0.335-0.476-0.333-0.477-0.332-0.478-0.33-0.479-0.329-0.48-0.328-0.481-0.326-0.482-0.325-0.966-0.645-0.485-0.32-0.971-0.635-0.488-0.315-0.977-0.626-0.981-0.62-0.983-0.614-0.493-0.305-0.494-0.303-0.495-0.301-0.496-0.3-0.497-0.299-0.497-0.297-0.499-0.295-0.499-0.293-0.5-0.292-1.004-0.58-0.502-0.287-0.504-0.286-1.010-0.566-0.507-0.282-0.507-0.28-0.508-0.278-1.017-0.551-0.511-0.274-0.511-0.271-1.024-0.539-0.513-0.266-1.029-0.53-0.515-0.262-1.034-0.52-0.518-0.258-0.518-0.256-1.040-0.507-0.52-0.251-1.044-0.497-0.523-0.246-0.524-0.244-0.525-0.243-0.525-0.241-0.527-0.24-0.526-0.238-0.528-0.237-0.528-0.235-0.529-0.234-0.53-0.232-1.061-0.459-0.532-0.227-0.533-0.225-0.533-0.223-0.534-0.222-1.070-0.439-1.071-0.432-1.075-0.426-0.538-0.211-0.539-0.209-0.539-0.207-0.54-0.206-0.541-0.204-0.541-0.202-0.542-0.201-0.542-0.199-0.544-0.197-1.088-0.39-0.545-0.193-0.546-0.191-1.094-0.376-0.547-0.186-1.098-0.367-0.549-0.181-0.55-0.179-1.102-0.353-0.552-0.174-1.106-0.343-0.554-0.17-1.108-0.333-0.555-0.164-0.556-0.162-0.557-0.161-0.557-0.159-0.558-0.158-1.115-0.309-0.559-0.152-1.119-0.3-1.121-0.292-0.561-0.144-0.562-0.143-1.125-0.279-0.563-0.137-1.128-0.269-0.564-0.131-0.565-0.13-0.565-0.128-0.566-0.127-1.134-0.248-0.567-0.122-0.568-0.12-0.568-0.118-0.569-0.117-0.569-0.115-1.14-0.224-0.57-0.109-1.143-0.214-0.571-0.104-1.145-0.203-0.574-0.1-1.147-0.193-0.574-0.094-1.149-0.183-1.151-0.175-0.576-0.084-1.153-0.166-0.577-0.080-1.155-0.154-0.579-0.075-0.579-0.073-0.579-0.071-1.158-0.137-1.16-0.129-0.58-0.062-0.581-0.060-0.58-0.058-1.164-0.112-0.581-0.054-1.165-0.101-0.583-0.048-1.167-0.091-1.168-0.083-1.169-0.076-1.169-0.069-0.586-0.032-1.171-0.058-1.172-0.051-0.587-0.023-0.586-0.021-1.174-0.036-0.588-0.015-0.587-0.013-1.176-0.022-1.177-0.014-0.588-0.005-0.589-0.003-0.589-0.001c-63.395 0-136.168 0-199.563 0l-0.589 0.001-0.589 0.003-0.589 0.005-1.176 0.014-1.176 0.022-0.588 0.013-0.587 0.015-1.174 0.036-0.587 0.021-0.586 0.023-1.172 0.051-1.172 0.058-0.585 0.032-1.169 0.069-1.169 0.076-1.169 0.083-1.166 0.091-0.583 0.048-1.165 0.101-0.582 0.054-1.163 0.112-0.581 0.058-0.58 0.060-0.58 0.062-1.16 0.129-1.158 0.137-0.58 0.071-0.579 0.073-0.578 0.075-1.155 0.154-0.578 0.080-0.577 0.082-1.152 0.168-1.15 0.175-1.149 0.183-0.574 0.094-1.148 0.193-1.146 0.2-0.572 0.102-0.572 0.104-1.142 0.214-0.571 0.109-0.57 0.111-0.569 0.113-0.569 0.115-0.569 0.117-0.568 0.118-0.568 0.12-0.568 0.122-0.567 0.124-0.566 0.125-0.566 0.127-0.565 0.128-1.13 0.262-0.564 0.134-0.563 0.135-0.563 0.137-0.563 0.139-0.562 0.14-1.123 0.286-1.121 0.292-0.56 0.149-0.558 0.15-0.559 0.152-1.116 0.309-1.113 0.317-0.557 0.161-0.556 0.162-0.555 0.164-1.108 0.333-0.554 0.17-1.106 0.343-0.552 0.174-1.102 0.353-0.55 0.179-1.098 0.363-0.549 0.185-1.095 0.373-1.092 0.38-1.090 0.387-0.543 0.195-0.544 0.197-0.542 0.199-1.084 0.403-0.54 0.204-1.081 0.413-0.538 0.209-0.538 0.211-0.538 0.213-0.536 0.214-1.071 0.432-1.070 0.439-0.534 0.222-0.533 0.223-0.533 0.225-0.532 0.227-1.061 0.459-0.53 0.232-0.529 0.233-1.056 0.472-0.527 0.238-0.526 0.24-1.050 0.484-0.524 0.245-0.523 0.246-1.044 0.497-0.52 0.251-1.040 0.507-0.518 0.256-0.518 0.258-0.517 0.259-1.032 0.523-1.029 0.53-0.513 0.266-1.024 0.539-0.511 0.271-1.020 0.548-1.015 0.555-0.508 0.28-0.506 0.282-1.010 0.566-0.504 0.286-0.503 0.287-0.502 0.288-0.501 0.291-0.5 0.292-0.499 0.293-0.499 0.295-0.994 0.595-0.496 0.3-0.495 0.302-0.494 0.303-0.493 0.305-0.492 0.307-0.983 0.616-0.979 0.624-0.488 0.313-0.488 0.315-0.971 0.635-0.485 0.32-0.484 0.322-0.964 0.647-0.481 0.327-0.48 0.328-0.479 0.329-0.478 0.33-0.477 0.332-0.476 0.333-0.475 0.335-0.474 0.336-0.473 0.338-0.473 0.34-0.471 0.341-0.47 0.342-0.938 0.69-0.467 0.348-0.466 0.349-0.466 0.35-0.465 0.352-0.463 0.353-0.463 0.354-0.462 0.356-0.461 0.357-0.46 0.359-0.458 0.36-0.458 0.362-0.456 0.364-0.456 0.365-0.454 0.367-0.453 0.368-0.453 0.369-0.901 0.743-0.897 0.75-0.446 0.376-0.446 0.378-0.445 0.379-0.444 0.381-0.443 0.383-0.442 0.384-0.442 0.386-0.439 0.387-0.439 0.388-0.438 0.39-0.437 0.392-0.435 0.393-0.434 0.395-0.433 0.396-0.432 0.398-0.431 0.398-0.43 0.4-0.428 0.401-0.427 0.403-0.426 0.404-0.425 0.406-0.424 0.407-0.423 0.409-0.421 0.41-0.421 0.412-0.42 0.413-0.419 0.415-0.418 0.416-0.416 0.417-0.414 0.419-0.414 0.42-0.411 0.421-0.411 0.422-0.408 0.422-0.408 0.424-0.405 0.425-0.405 0.426-0.402 0.427-0.402 0.429-0.399 0.429-0.399 0.431-0.397 0.432-0.397 0.433-0.394 0.434-0.393 0.436-0.392 0.436-0.39 0.438-0.389 0.439-0.387 0.44-0.385 0.441-0.384 0.442-0.383 0.443-0.381 0.444-0.379 0.444-0.378 0.446-0.377 0.447-0.375 0.448-0.374 0.449-0.373 0.45-0.371 0.451-0.37 0.452-0.368 0.453-0.366 0.455-0.365 0.455-0.364 0.457-0.362 0.457-0.36 0.459-0.359 0.46-0.357 0.46-0.356 0.462-0.354 0.463-0.353 0.464-0.352 0.465-0.351 0.466-0.349 0.466-0.347 0.467-0.346 0.468-0.344 0.469-0.343 0.47-0.341 0.471-0.339 0.472-0.338 0.473-0.337 0.474c-22.263 31.467-34.554 69.211-34.809 108.25v0.064l-0.003 0.589-0.001 0.589zM741.832 318.834c0 13.232-5.257 25.922-14.613 35.279s-22.046 14.613-35.279 14.613c-97.558 0-261.655 0-359.214 0-13.232 0-25.922-5.257-35.278-14.613s-14.613-22.046-14.613-35.279v-139.693l0.001-0.404 0.002-0.402 0.003-0.403 0.004-0.402 0.006-0.402 0.007-0.402 0.009-0.402 0.010-0.402 0.011-0.402 0.011-0.401 0.013-0.402 0.014-0.401 0.015-0.401 0.016-0.401 0.018-0.4 0.019-0.401 0.042-0.801 0.023-0.4 0.025-0.4 0.025-0.399 0.027-0.4 0.028-0.399 0.059-0.799 0.032-0.398 0.033-0.398 0.034-0.399 0.035-0.398 0.036-0.398 0.037-0.398 0.079-0.795 0.084-0.795 0.044-0.397 0.045-0.397 0.046-0.397 0.047-0.397 0.049-0.396 0.050-0.396 0.051-0.396 0.053-0.396 0.053-0.395 0.055-0.396 0.057-0.395 0.057-0.394 0.058-0.395 0.059-0.394 0.060-0.394 0.062-0.393 0.063-0.394 0.064-0.393 0.065-0.393 0.066-0.392 0.068-0.392 0.069-0.392 0.070-0.392 0.072-0.391 0.073-0.391 0.074-0.391 0.075-0.391 0.076-0.39 0.078-0.39 0.079-0.389 0.16-0.778 0.082-0.389 0.083-0.388 0.084-0.388 0.085-0.388 0.087-0.387 0.176-0.774 0.182-0.772 0.093-0.386 0.094-0.385 0.095-0.385 0.096-0.385 0.097-0.384 0.099-0.384 0.1-0.383 0.101-0.384 0.102-0.382 0.102-0.383 0.104-0.382 0.105-0.382 0.106-0.381 0.216-0.762 0.11-0.38 0.111-0.38 0.112-0.379 0.228-0.759 0.116-0.378 0.117-0.378 0.118-0.377 0.239-0.755 0.122-0.376 0.123-0.376 0.124-0.376 0.25-0.75 0.127-0.375 0.128-0.375 0.129-0.374 0.13-0.374 0.132-0.374 0.133-0.373 0.133-0.372 0.135-0.372 0.137-0.372 0.137-0.371 0.278-0.741 0.141-0.369 0.142-0.37 0.143-0.369 0.289-0.736 0.147-0.368 0.296-0.734 0.149-0.366 0.151-0.366 0.151-0.365 0.153-0.364 0.154-0.365 0.155-0.363 0.156-0.364 0.158-0.362 0.158-0.363 0.16-0.361 0.161-0.362 0.162-0.36 0.163-0.361 0.164-0.359 0.166-0.36 0.166-0.358 0.168-0.358 0.169-0.358 0.17-0.357 0.171-0.357 0.171-0.356 0.347-0.711 0.175-0.355 0.176-0.354 0.177-0.353 0.178-0.353 0.179-0.353 0.181-0.353 0.181-0.352 0.183-0.352 0.184-0.351 0.185-0.35 0.186-0.35 0.187-0.35 0.188-0.348 0.19-0.349 0.19-0.347 0.192-0.347 0.193-0.347 0.193-0.346 0.194-0.345 0.195-0.345 0.196-0.344 0.397-0.686 0.2-0.343 0.2-0.341 0.202-0.341 0.203-0.341 0.204-0.34 0.412-0.678 0.207-0.338 0.418-0.674 0.211-0.336 0.212-0.336 0.213-0.335 0.214-0.334 0.215-0.334 0.216-0.333 0.216-0.332 0.217-0.332 0.219-0.331 0.441-0.661 0.222-0.33 0.223-0.329 0.224-0.329 0.225-0.328 0.226-0.328 0.227-0.326 0.228-0.326 0.229-0.326 0.231-0.325 0.231-0.324 0.233-0.323 0.234-0.323 0.234-0.322 0.236-0.321 0.237-0.321 0.476-0.639 0.239-0.318 0.24-0.318 0.241-0.317 0.487-0.632 0.244-0.315 0.492-0.628 0.248-0.312 0.498-0.625 0.251-0.31 0.252-0.31 0.253-0.309 0.254-0.309 0.255-0.307 0.256-0.307 0.257-0.307 0.258-0.307 0.259-0.305 0.261-0.305 0.261-0.304 0.262-0.303 0.263-0.303 0.263-0.302 0.265-0.301 0.265-0.3 0.535-0.598 0.269-0.298 0.54-0.594 0.272-0.295 0.273-0.295 0.274-0.294 0.275-0.293 0.275-0.292 0.277-0.292 0.278-0.291 0.558-0.58 0.281-0.288 0.282-0.287 0.283-0.287 0.284-0.286 0.285-0.285 0.57-0.568 0.287-0.283 0.288-0.282 0.288-0.281 0.289-0.28 0.29-0.279 0.291-0.278 0.291-0.277 0.293-0.276 0.293-0.275 0.294-0.274 0.294-0.272 0.296-0.272 0.296-0.271 0.297-0.269 0.298-0.269 0.299-0.268 0.299-0.266 0.301-0.266 0.602-0.529 0.91-0.786 0.305-0.26 0.306-0.259 0.306-0.258 0.614-0.514 0.308-0.255 0.308-0.254 0.309-0.252 0.31-0.252 0.311-0.251 0.311-0.25 0.312-0.248 0.313-0.248 0.313-0.247 0.315-0.245 0.314-0.245 0.316-0.243 0.316-0.242 0.318-0.241 0.317-0.241 0.638-0.478 0.32-0.238 0.32-0.236 0.322-0.236 0.322-0.235 0.322-0.234 0.648-0.464 0.325-0.23 0.325-0.229 0.326-0.229 0.327-0.227 0.327-0.226 0.328-0.225 0.329-0.224 0.33-0.223 0.659-0.443 0.331-0.22 0.331-0.218 0.665-0.435 0.333-0.216 0.333-0.215 0.335-0.214 0.335-0.213 0.335-0.212 0.673-0.42 0.676-0.416 0.338-0.206 0.679-0.409 0.341-0.203 0.341-0.202 0.342-0.201 0.685-0.398 0.688-0.395 0.344-0.195 0.346-0.194 0.346-0.193 0.693-0.383 0.348-0.191 0.348-0.189 0.697-0.375 0.35-0.186 0.351-0.185 0.701-0.366 0.352-0.182 0.353-0.18 0.353-0.179 0.353-0.178 0.354-0.177 0.354-0.176 0.354-0.175 0.355-0.174 1.069-0.515 0.357-0.17 0.358-0.169 0.717-0.333 0.719-0.33 0.36-0.163 0.361-0.162 0.361-0.161 0.724-0.318 0.363-0.157 0.363-0.156 0.364-0.155 0.364-0.154 0.365-0.153 0.365-0.152 0.366-0.15 0.366-0.149 0.733-0.296 0.368-0.147 0.368-0.146 0.369-0.144 0.369-0.143 0.369-0.142 0.37-0.141 0.37-0.14 0.371-0.139 0.371-0.137 0.372-0.136 0.372-0.135 0.373-0.134 0.373-0.133 0.373-0.131 0.747-0.261 0.375-0.128 0.75-0.253 0.375-0.125 0.375-0.124 0.376-0.123 0.376-0.122 0.377-0.121 0.377-0.119 0.756-0.235 0.758-0.231 0.379-0.113 0.761-0.224 0.761-0.218 0.763-0.215 0.382-0.105 0.764-0.207 0.383-0.102 0.383-0.101 0.384-0.1 0.384-0.099 0.384-0.098 0.384-0.096 0.385-0.095 0.386-0.094 0.771-0.184 0.773-0.179 0.387-0.088 0.775-0.172 0.388-0.084 0.388-0.083 0.778-0.163 0.389-0.080 0.39-0.079 0.78-0.153 0.39-0.075 0.391-0.074 0.391-0.073 0.391-0.071 0.392-0.070 0.392-0.069 0.392-0.068 0.393-0.067 0.393-0.065 0.393-0.064 0.393-0.063 0.787-0.123 0.394-0.059 0.788-0.115 0.395-0.056 0.395-0.055 0.395-0.054 0.791-0.103 0.396-0.050 0.792-0.096 0.397-0.046 0.397-0.045 0.398-0.044 0.397-0.042 0.398-0.041 0.398-0.040 0.398-0.039 0.398-0.037 0.398-0.036 0.398-0.035 0.398-0.034 0.398-0.033 0.399-0.032 0.399-0.031 0.799-0.057 0.8-0.052 0.399-0.024 0.4-0.023h214.024l0.4 0.023 0.4 0.024 0.8 0.052 0.799 0.057 0.399 0.031 0.398 0.032 0.399 0.033 0.398 0.034 0.398 0.035 0.398 0.036 0.398 0.037 0.398 0.039 0.398 0.040 0.398 0.041 0.398 0.042 0.397 0.044 0.397 0.045 0.397 0.046 0.792 0.096 0.397 0.050 0.79 0.103 0.396 0.054 0.395 0.055 0.395 0.056 0.788 0.115 0.394 0.059 0.787 0.123 0.393 0.063 0.393 0.064 0.393 0.065 0.392 0.067 0.393 0.068 0.392 0.069 0.391 0.070 0.392 0.071 0.391 0.073 0.781 0.148 0.78 0.153 0.779 0.158 0.777 0.163 0.388 0.083 0.388 0.084 0.775 0.172 0.387 0.088 0.387 0.089 0.386 0.090 0.772 0.184 0.385 0.094 0.385 0.095 0.385 0.096 0.384 0.098 0.384 0.099 0.384 0.1 0.383 0.101 0.383 0.102 0.764 0.207 0.382 0.105 0.762 0.215 0.762 0.218 0.76 0.224 0.379 0.113 0.379 0.115 0.378 0.116 0.378 0.117 0.378 0.118 0.377 0.119 0.754 0.242 0.752 0.246 0.375 0.125 0.75 0.253 0.374 0.128 0.375 0.13 0.746 0.262 0.373 0.133 0.373 0.134 0.372 0.135 0.742 0.273 0.74 0.279 0.37 0.141 0.369 0.142 0.369 0.143 0.369 0.144 0.368 0.146 0.367 0.147 0.734 0.296 0.366 0.149 0.366 0.15 0.365 0.152 0.365 0.153 0.364 0.154 0.364 0.155 0.363 0.156 0.363 0.157 0.724 0.318 0.361 0.161 0.361 0.162 0.36 0.163 0.719 0.33 0.717 0.333 0.357 0.169 0.357 0.17 1.070 0.515 0.355 0.174 0.354 0.175 0.354 0.176 0.353 0.177 0.353 0.178 0.353 0.179 0.353 0.18 0.352 0.182 0.702 0.366 0.351 0.185 0.349 0.186 0.698 0.375 0.348 0.189 0.694 0.382 0.346 0.192 0.346 0.193 0.345 0.194 0.345 0.195 0.688 0.395 0.685 0.398 0.342 0.201 0.341 0.202 0.34 0.203 0.34 0.204 0.339 0.205 0.339 0.206 0.675 0.416 0.673 0.42 0.336 0.212 0.335 0.213 0.334 0.214 0.334 0.215 0.333 0.216 0.665 0.435 0.331 0.218 0.33 0.22 0.66 0.443 0.33 0.223 0.328 0.224 0.328 0.225 0.328 0.226 0.327 0.227 0.326 0.229 0.325 0.229 0.325 0.23 0.324 0.232 0.323 0.232 0.323 0.234 0.322 0.235 0.642 0.471 0.32 0.238 0.319 0.239 0.318 0.239 0.318 0.241 0.317 0.241 0.317 0.242 0.315 0.243 0.315 0.245 0.314 0.245 0.314 0.247 0.313 0.248 0.312 0.248 0.311 0.25 0.311 0.251 0.619 0.504 0.309 0.254 0.307 0.255 0.614 0.514 0.307 0.258 0.305 0.259 0.305 0.26 0.607 0.523 0.302 0.262 0.302 0.264 0.301 0.264 0.6 0.533 0.298 0.268 0.298 0.269 0.297 0.269 0.297 0.271 0.59 0.544 0.294 0.274 0.293 0.275 0.292 0.276 0.292 0.277 0.291 0.278 0.29 0.279 0.289 0.28 0.288 0.281 0.288 0.282 0.286 0.283 0.286 0.284 0.285 0.284 0.284 0.285 0.284 0.286 0.283 0.287 0.282 0.287 0.281 0.288 0.558 0.58 0.278 0.291 0.277 0.292 0.276 0.292 0.275 0.293 0.274 0.294 0.544 0.59 0.271 0.297 0.27 0.297 0.268 0.298 0.268 0.299 0.266 0.299 0.266 0.3 0.264 0.301 0.264 0.302 0.525 0.605 0.261 0.304 0.26 0.305 0.259 0.305 0.259 0.307 0.257 0.307 0.256 0.307 0.255 0.307 0.254 0.309 0.253 0.309 0.502 0.621 0.25 0.312 0.249 0.312 0.247 0.312 0.247 0.314 0.245 0.314 0.245 0.315 0.243 0.316 0.242 0.316 0.242 0.317 0.24 0.318 0.239 0.318 0.476 0.639 0.237 0.321 0.235 0.321 0.235 0.322 0.234 0.323 0.232 0.323 0.232 0.324 0.23 0.325 0.23 0.326 0.228 0.326 0.227 0.326 0.226 0.328 0.225 0.328 0.224 0.329 0.223 0.329 0.222 0.33 0.441 0.661 0.218 0.331 0.218 0.332 0.216 0.332 0.216 0.333 0.215 0.334 0.214 0.334 0.213 0.335 0.212 0.336 0.21 0.336 0.21 0.337 0.208 0.337 0.208 0.338 0.206 0.339 0.205 0.339 0.204 0.34 0.203 0.341 0.202 0.341 0.201 0.341 0.398 0.686 0.197 0.343 0.197 0.344 0.195 0.345 0.194 0.345 0.193 0.346 0.193 0.347 0.381 0.694 0.189 0.349 0.189 0.348 0.187 0.35 0.186 0.35 0.185 0.35 0.184 0.351 0.364 0.703 0.18 0.353 0.358 0.706 0.177 0.353 0.175 0.354 0.175 0.355 0.174 0.355 0.172 0.355 0.172 0.356 0.171 0.357 0.17 0.357 0.169 0.358 0.333 0.717 0.165 0.36 0.165 0.359 0.163 0.361 0.162 0.36 0.161 0.362 0.159 0.361 0.159 0.363 0.157 0.362 0.156 0.364 0.156 0.363 0.153 0.365 0.153 0.364 0.152 0.365 0.15 0.366 0.149 0.366 0.296 0.734 0.147 0.368 0.146 0.368 0.144 0.368 0.143 0.369 0.142 0.37 0.141 0.369 0.14 0.371 0.139 0.371 0.137 0.371 0.136 0.372 0.135 0.372 0.134 0.372 0.133 0.373 0.262 0.747 0.129 0.374 0.128 0.375 0.253 0.749 0.125 0.375 0.124 0.376 0.123 0.376 0.122 0.376 0.121 0.377 0.119 0.377 0.118 0.377 0.117 0.378 0.116 0.378 0.115 0.379 0.226 0.759 0.111 0.38 0.109 0.38 0.109 0.381 0.215 0.762 0.105 0.382 0.103 0.382 0.103 0.383 0.102 0.382 0.101 0.384 0.1 0.383 0.099 0.384 0.098 0.384 0.096 0.385 0.095 0.385 0.094 0.385 0.093 0.386 0.091 0.386 0.090 0.386 0.089 0.387 0.088 0.387 0.086 0.387 0.086 0.388 0.084 0.388 0.083 0.388 0.081 0.389 0.081 0.388 0.080 0.39 0.079 0.389 0.153 0.78 0.075 0.391 0.074 0.391 0.073 0.391 0.071 0.391 0.070 0.392 0.069 0.392 0.068 0.392 0.067 0.392 0.065 0.393 0.064 0.393 0.063 0.394 0.061 0.393 0.061 0.394 0.059 0.394 0.057 0.395 0.057 0.394 0.056 0.395 0.055 0.395 0.054 0.396 0.103 0.791 0.050 0.396 0.048 0.396 0.048 0.397 0.046 0.397 0.045 0.397 0.044 0.397 0.042 0.398 0.041 0.398 0.040 0.398 0.039 0.398 0.037 0.398 0.036 0.398 0.035 0.398 0.034 0.399 0.033 0.398 0.032 0.398 0.031 0.399 0.057 0.799 0.026 0.4 0.026 0.399 0.024 0.4 0.023 0.4 0.022 0.4 0.020 0.4 0.019 0.401 0.018 0.4 0.017 0.401 0.015 0.401 0.014 0.401 0.013 0.402 0.011 0.401 0.011 0.402 0.010 0.402 0.008 0.402 0.007 0.402 0.006 0.402 0.005 0.402 0.003 0.403 0.002 0.402 0.001 0.404v139.693zM322.749 299.741c0 16.522 13.413 29.935 29.935 29.935s29.935-13.413 29.935-29.935v-60.732c0-16.521-13.414-29.935-29.935-29.935s-29.935 13.414-29.935 29.935v60.732zM402.574 299.741c0 16.522 13.414 29.935 29.935 29.935s29.935-13.413 29.935-29.935v-60.732c0-16.521-13.414-29.935-29.935-29.935s-29.935 13.414-29.935 29.935v60.732zM741.832 416.601v301.361c0 34.403-13.666 67.397-37.993 91.723s-57.32 37.993-91.723 37.993c-63.395 0-136.168 0-199.563 0-34.403 0-67.397-13.666-91.723-37.993s-37.993-57.32-37.993-91.723v-301.361c15.308 7.811 32.384 11.994 49.891 11.994 97.559 0 261.656 0 359.214 0 17.508 0 34.583-4.183 49.892-11.994zM563.559 787.809c-17.486 0-31.682-14.196-31.682-31.682s14.196-31.681 31.682-31.681c17.485 0 31.681 14.196 31.681 31.681s-14.196 31.682-31.681 31.682zM663.34 787.809c-17.485 0-31.681-14.196-31.681-31.682s14.196-31.681 31.681-31.681c17.486 0 31.682 14.196 31.682 31.681s-14.196 31.682-31.682 31.682z" />
<glyph unicode="&#xe912;" d="M242.542 757.49v-508.17c0-16.522 13.413-29.935 29.935-29.935s29.935 13.413 29.935 29.935v508.17c0 16.522-13.414 29.935-29.935 29.935s-29.935-13.413-29.935-29.935z" />
<glyph unicode="&#xe913;" d="M959.543 370.347c-0.001-60.618-49.141-109.759-109.76-109.76h-93.924c-13.97 0-27.299-5.858-36.75-16.15l-77.848-84.795c-20.787-22.641-50.116-35.53-80.852-35.53h-386.279c-60.618 0-109.759 49.141-109.759 109.76v454.487c0 60.618 49.141 109.759 109.76 109.759 159.538 0 516.114 0 675.652 0 60.618 0 109.759-49.141 109.76-109.759v-318.013zM899.674 678.381v9.98c-0.001 27.552-22.336 49.889-49.892 49.889 0 0-675.65 0-675.653 0-27.552 0-49.888-22.336-49.889-49.891 0 0 0-454.485 0-454.487 0.001-27.553 22.336-49.889 49.891-49.89 0 0 386.276 0 386.28 0 13.969 0.001 27.299 5.859 36.75 16.151l77.848 84.795c20.787 22.641 50.116 35.529 80.852 35.529h93.924c27.553 0.002 49.889 22.337 49.89 49.892v8.687h-148.241c-16.522 0-29.935 13.414-29.935 29.935s13.413 29.935 29.935 29.935h148.241v59.869h-148.241c-16.522 0-29.935 13.414-29.935 29.935s13.413 29.935 29.935 29.935h148.241v59.869h-148.241c-16.522 0-29.935 13.414-29.935 29.935s13.413 29.935 29.935 29.935h148.241z" />
<glyph unicode="&#xe914;" d="M763.419 571.737c9.346 29.047 52.349 26.822 57.651-4.888 0.296-1.117 0.465-2.605 0.484-4.514l0.003-0.404v-29.673c0.001-80.023-31.016-156.849-86.389-214.4l-1.487-1.536-1.345-1.37-1.354-1.363-1.399-1.39-1.401-1.375-1.403-1.359-1.401-1.34-1.393-1.316-1.944-1.81-0.758-0.696-1.451-1.322-1.454-1.308-1.455-1.292-1.452-1.274-1.444-1.249-2.014-1.718-0.784-0.661-1.502-1.254-1.504-1.24-1.505-1.224-1.502-1.206-1.491-1.183-2.078-1.624-0.809-0.626-1.551-1.184-1.553-1.171-1.553-1.156-1.549-1.138-1.539-1.116-2.132-1.524-2.435-1.705-1.599-1.101-1.599-1.086-1.595-1.069-1.584-1.049-2.179-1.42-2.508-1.601-1.643-1.031-1.643-1.015-1.638-0.999-1.628-0.98-2.219-1.313-2.579-1.495-1.685-0.958-1.684-0.944-1.679-0.928-1.671-0.91-2.251-1.205-2.649-1.387-1.723-0.885-1.722-0.872-1.719-0.856-1.709-0.838-2.28-1.098-2.712-1.276-1.76-0.811-1.759-0.797-1.754-0.782-1.744-0.764-2.31-0.994-2.768-1.161-1.792-0.735-1.791-0.721-1.786-0.706-1.774-0.689c-0.465-0.18-0.931-0.357-1.397-0.535-34.711-13.167-71.837-20.104-109.68-20.104-0.054 0-0.106 0-0.16 0-82.017 0-160.674 32.58-218.669 90.576s-90.575 136.652-90.575 218.669v30.013c1.919 39.509 57.823 40.294 59.869-0.34 0 0 0-12.992 0-29.673 0-66.139 26.273-129.568 73.040-176.335s110.195-73.040 176.334-73.040c0.054 0 0.106 0 0.16 0 38.38 0 75.848 8.847 109.68 25.415 1.466 0.717 2.924 1.449 4.379 2.198l1.507 0.782 2.177 1.151 2.173 1.178 2.456 1.365 1.897 1.079 2.329 1.355 1.809 1.077 2.404 1.462 1.195 0.74 2.341 1.479 1.713 1.105 2.367 1.559 1.469 0.99 2.032 1.391 1.642 1.147 1.161 0.822 1.302 0.934 2.144 1.567 1.596 1.188 1.14 0.861 1.13 0.864 1.476 1.145 2.328 1.841 1.118 0.9 1.106 0.901 1.406 1.162 1.897 1.593 1.507 1.29 1.082 0.939 1.322 1.162 1.899 1.697 1.472 1.342 1.058 0.975 1.206 1.128 1.238 1.173 2.128 2.054 1.031 1.013 1.467 1.464 1.731 1.755 1.485 1.537 1.724 1.814 1.477 1.587 1.664 1.817 1.453 1.621 1.619 1.836 1.413 1.636 1.59 1.872 1.38 1.659 1.553 1.899 1.364 1.703 1.499 1.903 1.329 1.722 1.465 1.931 1.296 1.747 1.425 1.954 1.254 1.756 1.397 1.991 1.243 1.811 1.335 1.979 1.212 1.838 1.294 1.996 1.63 2.58 1.598 2.599 1.565 2.616 1.533 2.634 1.5 2.652 1.467 2.669 1.434 2.686 1.399 2.702 1.368 2.719 1.333 2.735 1.299 2.75 1.266 2.765 1.232 2.781 1.198 2.795 1.164 2.81 1.129 2.824 0.552 1.417 1.078 2.844 1.043 2.857 0.509 1.434 0.991 2.877 0.482 1.443 0.473 1.446 0.466 1.449 0.456 1.451 0.447 1.455 0.438 1.458 0.43 1.462 0.421 1.463 0.412 1.467 0.402 1.469 0.394 1.472 0.385 1.474 0.376 1.477 0.367 1.48 0.358 1.483 0.35 1.485 0.34 1.487 0.331 1.49 0.322 1.492 0.313 1.494 0.304 1.497 0.295 1.499 0.285 1.501 0.277 1.504 0.267 1.505 0.259 1.508 0.249 1.511 0.24 1.512 0.23 1.513 0.222 1.516 0.212 1.517 0.203 1.519 0.194 1.522 0.184 1.523 0.175 1.525 0.166 1.526 0.156 1.529 0.148 1.53 0.138 1.532 0.128 1.533c0.535 6.642 0.807 13.334 0.807 20.054v30.013c0 3.524 0.61 6.906 1.731 9.466zM552.225 497.414h119.66c16.522 0 29.935 13.414 29.935 29.935s-13.413 29.935-29.935 29.935h-119.66c-16.522 0-29.935-13.414-29.935-29.935s13.413-29.935 29.935-29.935zM552.147 617.152h119.66c16.521 0 29.935 13.414 29.935 29.935s-13.414 29.935-29.935 29.935h-119.66c-16.521 0-29.935-13.414-29.935-29.935s13.414-29.935 29.935-29.935z" />
<glyph unicode="&#xe915;" d="M432.409 58.374h159.651c16.521 0 29.935 13.413 29.935 29.935s-13.414 29.935-29.935 29.935h-159.651c-16.521 0-29.935-13.414-29.935-29.935s13.414-29.935 29.935-29.935zM482.3 224.451c-90.276 8.688-169.219 56.171-219.944 125.584-9.748 13.339-6.832 32.083 6.507 41.831s32.083 6.833 41.831-6.507c45.393-62.116 118.793-102.476 201.621-102.476h0.080c35.397 0 69.073 7.378 99.583 20.685v0.098c3.372 1.469 6.712 3.014 10.017 4.632l35.051 20.88 30.584 25.73 27.303 31.975 22.846 38.82 14.42 38.409 7.394 35.873 1.289 12.219c0.466 5.785 0.733 11.607 0.793 17.453l0.013 2.601v30.013l0.045 1.639 0.168 1.918 0.349 2.134 0.509 1.985 0.504 1.42 0.157 0.371c9.346 29.047 52.349 26.822 57.651-4.888l0.296-1.546 0.145-1.608 0.043-1.36 0.003-0.404c0-2.032 0-13.029 0-29.753 0-160.706-122.618-292.773-279.388-307.748v-36.339c0-16.521-13.414-29.935-29.935-29.935s-29.935 13.414-29.935 29.935v36.361zM512.235 831.682v-0.002l-0.418-0.055c0.136 0.037 0.276 0.057 0.418 0.057-50.281 0-98.503-19.974-134.058-55.529s-55.528-83.775-55.528-134.057c0-39.002 0-80.735 0-119.737 0-50.281 19.974-98.503 55.528-134.057s83.776-55.529 134.058-55.529c0 0 0 0 0 0 50.281 0 98.503 19.974 134.057 55.529s55.529 83.775 55.528 134.057v119.737c0.001 50.281-19.973 98.503-55.528 134.058s-83.775 55.528-134.057 55.528zM511.594 771.812l1.372-0.001c34.14-0.193 66.839-13.837 90.992-37.991 24.326-24.326 37.992-57.32 37.992-91.723v-119.737c0-34.403-13.666-67.397-37.992-91.723s-57.321-37.993-91.723-37.993c-34.403 0-67.397 13.666-91.724 37.993s-37.992 57.32-37.992 91.723v119.737c0 34.403 13.666 67.397 37.992 91.723 24.177 24.177 56.912 37.824 91.083 37.992z" />
<glyph unicode="&#xe916;" d="M980.511 636.311c0 29.11-11.564 57.028-32.148 77.612s-48.502 32.148-77.611 32.148h-598.691c-60.619 0-109.76-49.141-109.76-109.761 0-100.942 0-273.717 0-374.66 0-29.11 11.564-57.028 32.148-77.611s48.502-32.148 77.611-32.148c100.672 0 269.28 0 341.107 0 29.927 0 58.556 12.219 79.259 33.829l66.61 69.529c9.411 9.823 22.424 15.377 36.025 15.378h75.691c60.619 0 109.76 49.141 109.76 109.761v255.923zM920.642 636.311v-255.924c0-27.553-22.336-49.89-49.89-49.891h-75.69c-29.927-0.001-58.555-12.22-79.258-33.829l-66.609-69.529c-9.413-9.824-22.426-15.378-36.028-15.378h-341.108c-13.232 0-25.922 5.256-35.278 14.613s-14.613 22.046-14.613 35.278v374.66c0 27.554 22.335 49.891 49.89 49.892 0.003 0 598.691 0 598.691 0 13.233-0.001 25.923-5.257 35.279-14.613s14.613-22.046 14.613-35.279zM296.96 249.418h109.101c16.521 0 29.935 13.413 29.935 29.935s-13.414 29.935-29.935 29.935h-109.101c-16.521 0-29.935-13.414-29.935-29.935s13.414-29.935 29.935-29.935zM507.278 636.146c-9.249 3.964-19.87 3.015-28.271-2.524s-13.456-14.928-13.456-24.99c0 0 0-239.476 0-239.476 0-10.447 5.446-20.138 14.369-25.569s20.033-5.82 29.313-1.022l139.694 72.216c9.943 5.14 16.188 15.397 16.188 26.591 0 0 0 107.391 0 107.391 0 11.974-7.136 22.796-18.143 27.514 0 0-139.694 59.869-139.694 59.869zM525.42 563.234l79.825-34.211c0 0.001 0-69.428 0-69.428s-79.825-41.267-79.825-41.267v144.906zM685.071 548.763c0 16.014 12.576 29.092 28.393 29.895h0.26c0.545 0.026 1.107 0.039 1.685 0.039h29.611c0.515-0.001 1.030-0.006 1.545-0.015l1.537-0.044 1.531-0.072 1.523-0.102c11.982-0.913 23.224-4.472 33.138-10.093l1.252-0.725 1.644-0.998 1.618-1.037 1.591-1.075 1.563-1.112 1.535-1.148 1.507-1.184 1.477-1.219 1.804-1.572 1.756-1.625 1.706-1.675 1.655-1.726 1.604-1.775 1.551-1.823 1.496-1.869 1.441-1.915 1.383-1.958 1.327-2.002 1.266-2.042 1.206-2.083 1.145-2.123 0.871-1.725 0.83-1.749 0.788-1.772 0.746-1.794 0.703-1.816 0.66-1.837 0.616-1.857 0.571-1.878 0.526-1.897 0.48-1.916 0.434-1.933 0.387-1.951 0.338-1.968 0.29-1.984 0.241-1.999 0.192-2.014 0.142-2.029 0.090-2.042 0.039-2.055 0.002-0.675c0-44.043-35.703-79.746-79.746-79.746l-31.555 0.038c-15.817 0.804-28.393 13.881-28.393 29.896v99.782zM745.020 518.828h-0.080v-39.913h0.081c8.384 0.001 15.554 5.192 18.475 12.537l0.436 1.21 0.141 0.454c0.163 0.547 0.303 1.104 0.419 1.67l0.215 1.249 0.133 1.244 0.055 1.258 0.002 0.414c-0.001 5.556-2.28 10.579-5.955 14.187l-0.043 0.043c-3.582 3.493-8.478 5.647-13.878 5.648z" />
<glyph unicode="&#xe917;" d="M142.76 29.898v563.036c0 16.522-13.414 29.935-29.935 29.935s-29.935-13.413-29.935-29.935v-563.036c0-16.522 13.414-29.935 29.935-29.935s29.935 13.413 29.935 29.935zM322.367 151.891v-45.66c0-16.522 13.414-29.935 29.935-29.935s29.935 13.413 29.935 29.935v45.66h139.282v-45.66c0-16.522 13.414-29.935 29.935-29.935s29.935 13.413 29.935 29.935v45.66h31.783c29.927 0 58.556 12.219 79.259 33.829l66.61 69.529c9.411 9.823 22.424 15.377 36.025 15.378h75.691c60.618 0 109.759 49.141 109.76 109.76v127.401c0 16.521-13.414 29.935-29.935 29.935s-29.935-13.414-29.935-29.935v-127.399c-0.001-27.556-22.336-49.892-49.89-49.892h-75.69c-29.927-0.001-58.555-12.22-79.258-33.829l-66.609-69.529c-9.413-9.824-22.426-15.378-36.028-15.378h-341.108c-13.232 0-25.922 5.256-35.278 14.613s-14.613 22.046-14.613 35.278v374.66c0 27.554 22.335 49.891 49.889 49.892 0.004 0 480.524 0 480.524 0 16.521 0 29.935 13.413 29.935 29.935s-13.414 29.935-29.935 29.935h-480.522c-60.619 0-109.76-49.141-109.76-109.761 0-100.942 0-273.717 0-374.66 0-29.11 11.564-57.028 32.148-77.611s48.502-32.148 77.611-32.148h50.303zM304.158 409.068c17.486 0 31.681-14.195 31.681-31.681s-14.195-31.681-31.681-31.681c-17.486 0-31.681 14.195-31.681 31.681s14.195 31.681 31.681 31.681zM304.158 512.342c17.486 0 31.681-14.195 31.681-31.681s-14.195-31.681-31.681-31.681c-17.486 0-31.681 14.195-31.681 31.681s14.195 31.681 31.681 31.681zM304.158 615.618c17.486 0 31.681-14.196 31.681-31.682s-14.195-31.681-31.681-31.681c-17.486 0-31.681 14.196-31.681 31.681s14.195 31.682 31.681 31.682z" />
<glyph unicode="&#xe918;" d="M639.227 553.081c26.385-29.902 42.403-69.165 42.403-112.138 0-93.621-76.009-169.629-169.63-169.629s-169.629 76.008-169.629 169.629c0 43.423 16.354 83.057 43.233 113.073 11.022 12.308 9.977 31.248-2.332 42.269s-31.248 9.977-42.269-2.331c-36.373-40.619-58.501-94.251-58.501-153.012 0-126.664 102.835-229.498 229.498-229.498s229.499 102.834 229.499 229.498c0 58.153-21.675 111.286-57.379 151.749-10.932 12.389-29.864 13.572-42.252 2.64s-13.571-29.863-2.64-42.251z" />
<glyph unicode="&#xe919;" d="M512 876.657c-236.805 0-429.061-192.256-429.061-429.062s192.256-429.061 429.061-429.061c236.806 0 429.062 192.255 429.062 429.061s-192.256 429.062-429.062 429.062zM512 816.788c203.764 0 369.193-165.429 369.193-369.193s-165.429-369.192-369.193-369.192c-203.763 0-369.192 165.429-369.192 369.192s165.429 369.193 369.192 369.193zM541.935 407.683v239.476c0 16.521-13.413 29.935-29.935 29.935s-29.935-13.414-29.935-29.935v-239.476c0-16.522 13.414-29.935 29.935-29.935s29.935 13.413 29.935 29.935z" />
<glyph unicode="&#xe91a;" d="M959.849 688.36c0 60.618-49.141 109.759-109.76 109.759-159.538 0-516.114 0-675.652 0-60.618 0-109.76-49.141-109.76-109.759v-454.487c0-60.618 49.141-109.76 109.76-109.76h386.278c30.736 0 60.065 12.889 80.852 35.53l77.849 84.795c9.45 10.293 22.78 16.15 36.75 16.15h93.924c60.618 0.001 109.759 49.141 109.759 109.76v318.013zM899.98 688.361v-318.013c-0.001-27.554-22.336-49.89-49.889-49.892h-93.924c-30.736 0-60.064-12.888-80.851-35.529l-77.849-84.795c-9.451-10.293-22.78-16.15-36.75-16.151-0.004 0-386.28 0-386.28 0-27.554 0.001-49.89 22.336-49.891 49.89 0 0.003 0 454.487 0 454.487 0.001 27.554 22.336 49.891 49.89 49.891 0.003 0 675.653 0 675.653 0 27.554 0 49.89-22.336 49.891-49.889z" />
<glyph unicode="&#xe91b;" d="M711.831 798.119h-537.389c-60.618 0-109.76-49.141-109.76-109.759v-454.487c0-60.618 49.141-109.76 109.76-109.76h386.278c30.736 0 60.065 12.889 80.852 35.53l77.849 84.795c9.45 10.293 22.78 16.15 36.75 16.15h93.924c29.11 0.001 57.028 11.565 77.611 32.149s32.147 48.502 32.147 77.612c0 69.216 0 158.359 0 158.359 0 16.522-13.413 29.935-29.935 29.935s-29.935-13.413-29.935-29.934v-158.361c0-13.232-5.256-25.922-14.612-35.278s-22.045-14.613-35.277-14.614h-93.924c-30.736 0-60.064-12.888-80.851-35.529l-77.849-84.795c-9.451-10.293-22.78-16.15-36.75-16.151-0.004 0-386.28 0-386.28 0-27.554 0.001-49.89 22.336-49.891 49.89 0 0.003 0 454.487 0 454.487 0.001 27.554 22.336 49.891 49.89 49.891 0.003 0 537.39 0 537.39 0 16.522 0 29.935 13.414 29.935 29.935s-13.413 29.935-29.935 29.935zM405.483 579.836c-4.885 0.667-9.84 1.006-14.829 1.006-13.143 0-26.769 0-39.912 0-1.715 0-3.425-0.039-5.128-0.12v27.812c0 16.521-13.414 29.935-29.935 29.935s-29.935-13.414-29.935-29.935v-49.005c-4.446-3.266-8.666-6.884-12.616-10.834-2.485-2.485-4.837-5.076-7.056-7.765h-47.934c-16.521 0-29.935-13.414-29.935-29.935s13.414-29.935 29.935-29.935h23.295c-0.302-3.305-0.454-6.633-0.454-9.978 0-13.143 0-26.769 0-39.912 0-3.345 0.152-6.674 0.454-9.978h-23.295c-16.521 0-29.935-13.414-29.935-29.935s13.414-29.935 29.935-29.935h47.934c2.219-2.689 4.571-5.281 7.056-7.765 3.949-3.95 8.17-7.568 12.616-10.835v-49.004c0-16.522 13.413-29.935 29.935-29.935s29.935 13.413 29.935 29.935v27.811c1.702-0.080 3.413-0.12 5.128-0.12 13.143 0 26.769 0 39.912 0 4.99 0 9.944 0.34 14.829 1.006v-28.697c0-16.522 13.413-29.935 29.935-29.935s29.935 13.413 29.935 29.935v57.031c0.988 0.918 1.959 1.854 2.914 2.809 2.484 2.484 4.837 5.076 7.056 7.765h57.634c16.521 0 29.935 13.413 29.935 29.935s-13.414 29.935-29.935 29.935h-32.997c0.302 3.305 0.454 6.633 0.454 9.978v39.912c0 3.345-0.152 6.674-0.454 9.978h32.997c16.521 0 29.935 13.413 29.935 29.935s-13.414 29.935-29.935 29.935h-57.634c-2.219 2.689-4.572 5.28-7.056 7.765-0.955 0.955-1.926 1.891-2.914 2.809v57.031c0 16.521-13.414 29.935-29.935 29.935s-29.935-13.414-29.935-29.935v-28.698zM440.544 471.083v-39.912c0-13.232-5.256-25.922-14.612-35.279s-22.047-14.613-35.279-14.613h-39.912c-13.232 0-25.922 5.256-35.279 14.613s-14.613 22.046-14.613 35.279v39.912c0 13.232 5.256 25.922 14.613 35.279s22.046 14.612 35.279 14.612h39.912c13.232 0 25.922-5.256 35.279-14.612s14.612-22.047 14.612-35.279zM751.744 630.691c17.486 0 31.681-14.196 31.681-31.682s-14.195-31.681-31.681-31.681c-17.486 0-31.681 14.196-31.681 31.681s14.195 31.682 31.681 31.682z" />
<glyph unicode="&#xe91c;" d="M359.493 261.142c0 17.486 14.195 31.682 31.681 31.682s31.681-14.196 31.681-31.682c0-17.485-14.195-31.681-31.681-31.681s-31.681 14.196-31.681 31.681zM462.768 261.142c0 17.486 14.196 31.682 31.681 31.682s31.682-14.196 31.682-31.682c0-17.485-14.196-31.681-31.682-31.681s-31.681 14.196-31.681 31.681zM510.912 773.272c-121.156 0-219.52-98.364-219.52-219.52s98.364-219.52 219.52-219.52c121.157 0 219.52 98.363 219.52 219.52s-98.363 219.52-219.52 219.52zM510.912 713.403c88.114 0 159.651-71.537 159.651-159.651s-71.537-159.651-159.651-159.651c-88.114 0-159.651 71.537-159.651 159.651s71.537 159.651 159.651 159.651z" />
<glyph unicode="&#xe91d;" d="M710.475 79.788h-399.126c-16.522 0-29.935-13.413-29.935-29.935s13.413-29.935 29.935-29.935h399.126c16.522 0 29.935 13.414 29.935 29.935s-13.413 29.935-29.935 29.935zM860.148 688.457c0 104.706-84.88 189.586-189.585 189.586-94.778 0-214.546 0-309.324 0-104.705 0-189.585-84.88-189.586-189.586 0-113.591 0-265.579 0-379.171 0.001-104.705 84.881-189.585 189.586-189.585 94.778 0 214.546 0 309.324 0 104.705 0 189.585 84.88 189.585 189.585v379.171zM800.279 688.459v-379.173c-0.001-71.641-58.077-129.716-129.716-129.716-94.778 0-214.546 0-309.324 0-71.64 0-129.715 58.075-129.717 129.714 0 0.004 0 379.173 0 379.173 0.002 71.642 58.077 129.717 129.717 129.717 94.778 0 214.546 0 309.324 0 71.639 0 129.715-58.075 129.716-129.715zM593.129 232.954h69.202c16.522 0 29.935 13.413 29.935 29.935s-13.413 29.935-29.935 29.935h-69.202c-16.521 0-29.935-13.414-29.935-29.935s13.414-29.935 29.935-29.935zM492.89 523.788c0.756-2.832 1.148-5.772 1.148-8.753 0-0.009 0-0.017 0-0.026 0-9.006-3.578-17.644-9.947-24.013s-15.007-9.947-24.013-9.947h-0.026c-9.006 0-17.645 3.578-24.013 9.947-11.683 11.683-30.652 11.683-42.334 0s-11.683-30.651 0-42.334c17.596-17.597 41.462-27.482 66.346-27.482h0.026c24.884 0 48.751 9.886 66.346 27.482s27.482 41.462 27.482 66.346c0 0.009 0 0.017 0 0.026 0 13.145-2.759 26.007-7.955 37.808 2.035 2.002 4.329 3.756 6.843 5.207 0.007 0.005 0.014 0.009 0.022 0.013 7.8 4.503 17.069 5.723 25.769 3.392s16.118-8.022 20.621-15.823c0.005-0.007 0.009-0.014 0.013-0.022 4.503-7.8 5.723-17.069 3.392-25.77-4.276-15.958 5.209-32.386 21.167-36.662s32.387 5.209 36.663 21.167c6.44 24.038 3.068 49.648-9.374 71.199-0.004 0.008-0.009 0.015-0.012 0.022-12.442 21.551-32.937 37.277-56.973 43.718s-49.648 3.068-71.199-9.374c-0.008-0.004-0.015-0.009-0.022-0.012-11.332-6.542-21.053-15.31-28.661-25.652-2.891 0.762-5.694 1.908-8.328 3.429-0.008 0.004-0.015 0.009-0.022 0.012-7.8 4.503-13.492 11.921-15.823 20.621s-1.111 17.969 3.392 25.769c0.005 0.008 0.009 0.015 0.013 0.023 4.503 7.799 11.92 13.491 20.62 15.823 15.959 4.276 25.443 20.703 21.167 36.662s-20.703 25.443-36.662 21.167c-24.037-6.441-44.531-22.166-56.973-43.717-0.004-0.008-0.009-0.015-0.012-0.023-12.443-21.551-15.815-47.161-9.374-71.198s22.167-44.531 43.718-56.974c0.007-0.004 0.014-0.008 0.022-0.012 11.454-6.612 24.054-10.663 36.954-12.040z" />
<glyph unicode="&#xe91e;" d="M481.248 239.467v-60.327c0-16.521 13.413-29.935 29.935-29.935s29.935 13.414 29.935 29.935v60.327c163.401 15.121 291.511 152.752 291.511 320.068 0 177.411-144.035 321.446-321.446 321.446s-321.446-144.035-321.446-321.446c0-167.316 128.11-304.947 291.511-320.068zM511.183 821.112c144.368 0 261.577-117.209 261.577-261.577s-117.209-261.577-261.577-261.577c-144.369 0-261.577 117.208-261.577 261.577s117.208 261.577 261.577 261.577z" />
<glyph unicode="&#xe91f;" d="M300.525 73.492v-27.436c0-16.532 13.402-29.935 29.935-29.935h361.446c16.532 0 29.935 13.402 29.935 29.935v27.436c0 29.527-12.947 58-36.582 78.88-22.223 19.632-52.284 30.881-83.713 30.881h-180.724c-31.429 0-61.491-11.249-83.714-30.881-23.634-20.879-36.581-49.352-36.581-78.88v0zM661.891 75.99h-301.417c0.733 11.887 6.681 23.041 16.27 31.513 11.669 10.308 27.574 15.879 44.075 15.88 0.002 0 180.725 0 180.725 0 16.504-0.001 32.409-5.572 44.077-15.88 9.59-8.472 15.538-19.627 16.27-31.513zM435.481 545.423c-2.046-0.198-4.11-0.294-6.184-0.294h-0.038c-17.846 0-34.96 7.088-47.579 19.707-2.173 2.174-4.183 4.481-6.019 6.901-5.89 7.763-15.19 12.172-24.929 11.82s-18.694-5.422-24.009-13.59c-13.324-20.48-20.574-44.54-20.574-69.347v-0.038c0-33.724 13.396-66.067 37.243-89.913s56.188-37.243 89.912-37.243h0.039c33.723 0 66.066 13.397 89.912 37.243s37.243 56.189 37.243 89.913v0.026c1.155-1.621 2.231-3.306 3.234-5.042 0.007-0.011 0.013-0.023 0.020-0.034 8.923-15.455 11.341-33.821 6.722-51.058-0.796-2.97-1.788-5.864-2.967-8.664-3.777-8.982-2.946-19.24 2.228-27.498s14.044-13.48 23.774-13.998c24.399-1.3 48.859 4.452 70.343 16.855 0.011 0.007 0.022 0.013 0.034 0.020 29.206 16.862 50.517 44.635 59.245 77.209s4.158 67.282-12.703 96.488c-0.007 0.011-0.013 0.023-0.020 0.034-16.862 29.206-44.635 50.517-77.209 59.245s-67.282 4.159-96.488-12.703l-0.878-0.518c0.937 2.113 1.992 4.184 3.16 6.205 0.006 0.011 0.012 0.023 0.019 0.034 8.923 15.454 23.619 26.731 40.857 31.35 2.97 0.795 5.973 1.382 8.986 1.763 9.667 1.22 18.136 7.069 22.7 15.679s4.652 18.9 0.235 27.587c-11.073 21.78-28.285 40.087-49.769 52.491-0.011 0.007-0.022 0.013-0.034 0.019-29.206 16.862-63.913 21.431-96.488 12.704s-60.347-30.040-77.209-59.245c-0.007-0.011-0.013-0.022-0.020-0.034-16.861-29.206-21.431-63.913-12.703-96.488s30.040-60.348 59.245-77.21l0.668-0.376zM500.318 506.948c0.21-2.094 0.31-4.206 0.31-6.329 0-0.012 0-0.026 0-0.038 0-17.846-7.089-34.961-19.708-47.579s-29.733-19.708-47.578-19.708h-0.039c-17.846 0-34.96 7.089-47.578 19.708s-19.708 29.733-19.708 47.579l0.027 1.512c19.078-10.937 40.841-16.833 63.214-16.833h0.038c25.489 0 50.188 7.653 71.022 21.689zM632.628 462.303c-0.066 21.991-5.842 43.787-17.029 63.162-0.006 0.011-0.012 0.022-0.019 0.034-12.744 22.073-31.721 39.637-54.294 50.662 1.709 1.229 3.488 2.372 5.326 3.433 0.011 0.007 0.022 0.012 0.034 0.019 15.455 8.923 33.821 11.341 51.058 6.722s31.934-15.895 40.857-31.35c0.006-0.011 0.012-0.022 0.019-0.034 8.923-15.455 11.341-33.821 6.722-51.058s-15.895-31.934-31.35-40.857l-1.323-0.733zM533.349 713.445c-19.011-11.052-34.999-26.953-46.185-46.327-0.007-0.011-0.012-0.023-0.019-0.034-12.744-22.073-18.466-47.29-16.727-72.351-1.919 0.866-3.798 1.835-5.636 2.897-0.011 0.007-0.022 0.012-0.034 0.019-15.455 8.923-26.732 23.619-31.35 40.857s-2.201 35.603 6.722 51.058c0.007 0.011 0.013 0.022 0.019 0.034 8.923 15.455 23.62 26.731 40.857 31.35s35.603 2.201 51.058-6.722l1.296-0.78z" />
<glyph unicode="&#xe920;" d="M781.632 369.155c0 29.111-11.564 57.028-32.148 77.612s-48.502 32.148-77.612 32.148c-88.189 0-229.365 0-317.555 0-29.11 0-57.028-11.564-77.611-32.148s-32.148-48.502-32.148-77.612c0-116.477 0-319.301 0-319.301 0-16.532 13.402-29.935 29.935-29.935h477.206c16.532 0 29.935 13.402 29.935 29.935v319.301zM721.763 369.155v-289.367c0 0-417.337 0-417.337 0s0 289.367 0 289.367c0 13.232 5.256 25.922 14.613 35.279s22.046 14.613 35.278 14.613c88.189 0 229.366 0 317.555 0 13.232 0 25.922-5.257 35.279-14.613s14.613-22.046 14.613-35.279zM452.352 139.657h119.738c16.521 0 29.935 13.414 29.935 29.935s-13.414 29.935-29.935 29.935h-119.738c-16.522 0-29.935-13.413-29.935-29.935s13.413-29.935 29.935-29.935zM242.811 653.283c17.485 0 31.681 14.196 31.681 31.681s-14.196 31.682-31.681 31.682c-17.486 0-31.682-14.196-31.682-31.682s14.196-31.681 31.682-31.681z" />
<glyph unicode="&#xe921;" d="M604.874 878.043c0 0-332.129 0-332.129 0-104.705-0.001-189.585-84.881-189.585-189.586 0-139.121 0-339.832 0-478.952 0-50.281 19.974-98.503 55.529-134.057s83.775-55.529 134.057-55.529c139.12 0 339.831 0 478.952 0l1.226 0.004c104.14 0.659 188.359 85.284 188.359 189.581v329.378c0 49.672-19.494 97.36-54.29 132.808-42.113 42.903-104.328 106.283-146.824 149.574-22.217 22.633-49.523 39.108-79.265 48.309l-0.258 0.080-0.439 0.133-0.161 0.050-0.137 0.041-0.383 0.117-1.123 0.334-1.125 0.327-1.375 0.39-0.403 0.111-0.478 0.133-1.768 0.476-0.193 0.050-0.303 0.080-0.235 0.060-0.124 0.033-0.777 0.199-1.138 0.286-0.346 0.084-0.31 0.077-0.483 0.118-0.224 0.053-0.151 0.037-0.856 0.202c-0.307 0.072-0.615 0.143-0.922 0.214l-0.13 0.031-0.322 0.072c0 0-0.353 0.080-0.353 0.080l-0.22 0.049-0.25 0.057-0.216 0.047-0.177 0.039-0.842 0.183c-0.316 0.068-0.631 0.134-0.947 0.2l-0.114 0.025-1.561 0.319-0.453 0.089-0.375 0.075c-0.323 0.062-0.646 0.125-0.968 0.187l-0.377 0.070-0.434 0.082-0.232 0.042-0.212 0.039-0.428 0.077-0.816 0.146c-0.329 0.058-0.658 0.115-0.988 0.171l-0.344 0.057-0.473 0.080-0.232 0.037-0.197 0.034-1.251 0.2c-0.333 0.053-0.668 0.104-1.003 0.155l-0.073 0.011-1.629 0.239-0.464 0.064-0.239 0.034-0.090 0.012c-0.34 0.047-0.678 0.092-1.017 0.137l-0.061 0.009-0.219 0.028-0.55 0.072-0.882 0.111-0.784 0.095c-0.342 0.040-0.685 0.080-1.029 0.119l-0.051 0.007-0.198 0.021-0.59 0.066-0.222 0.024-1.435 0.149c-0.348 0.035-0.694 0.069-1.040 0.102l-0.848 0.079-0.888 0.078-0.446 0.036-0.216 0.019-0.1 0.008c-0.351 0.029-0.699 0.056-1.049 0.082l-0.033 0.002-0.824 0.061-0.211 0.014-0.146 0.011-0.535 0.036-0.752 0.048c-0.352 0.022-0.704 0.043-1.057 0.063l-0.024 0.001-0.119 0.007-0.928 0.050-0.69 0.034-0.427 0.019-0.207 0.011-0.108 0.004c-0.355 0.016-0.71 0.031-1.063 0.044h-0.015l-1.385 0.048c0 0-0.372 0.011-0.372 0.011l-0.732 0.019c-0.356 0.009-0.713 0.016-1.070 0.023l-0.888 0.015-0.186 0.002-0.125 0.002-0.199 0.002-0.388 0.005-0.898 0.006-0.899 0.003zM342.465 818.174h-69.722c-71.64-0.002-129.715-58.077-129.715-129.717 0-139.121 0-339.832 0-478.952 0-34.403 13.666-67.397 37.993-91.723s57.32-37.993 91.723-37.993c139.12 0 339.831 0 478.952 0l0.838 0.003c71.253 0.45 128.876 58.352 128.877 129.711v329.38c0 33.986-13.338 66.615-37.146 90.869-42.114 42.903-104.329 106.282-146.824 149.574-4.825 4.915-10.001 9.406-15.466 13.445v-27.981c0-60.618-49.141-109.76-109.76-109.76-37.615 0-82.378 0-119.993 0-60.619 0-109.76 49.141-109.76 109.76v53.385zM402.333 818.174l203.516-0.005c0 0 0.293-0.003 0.293-0.003l0.717-0.009 0.298-0.005 0.986-0.021 0.955-0.028 0.31-0.011 0.688-0.026c0 0 0.321-0.013 0.321-0.013l1.012-0.047 0.902-0.049 0.337-0.020 0.65-0.040 0.349-0.023 1.042-0.075 0.844-0.067 1.351-0.119 1.062-0.103 0.799-0.083 0.969-0.108 0.389-0.046 1.067-0.13 0.776-0.101 0.136-0.019c0.006-0.23 0.006-52.234 0.006-52.234-0.001-27.555-22.337-49.892-49.891-49.892-37.615 0-82.378 0-119.993 0-27.553 0-49.89 22.336-49.891 49.89l-0.001 53.386z" />
<glyph unicode="&#xe922;" d="M416.18 295.299h192.082c12.778-44.222 42.193-81.837 82.137-104.898 40.959-23.648 89.636-30.056 135.32-17.815 0.034 0.010 0.068 0.018 0.102 0.028 45.684 12.241 84.636 42.129 108.283 83.089s30.056 89.636 17.815 135.32c-16.484 61.52-35.703 133.245-52.187 194.764-12.241 45.684-42.129 84.636-83.089 108.283s-89.636 30.056-135.32 17.815c-0.034-0.009-0.068-0.018-0.102-0.028-26.283-7.042-50.338-19.925-70.531-37.399 0.012 0.011-196.953 0.011-196.953 0.011-20.169 17.456-44.228 30.344-70.518 37.388-0.034 0.009-0.068 0.018-0.102 0.027-45.684 12.241-94.361 5.833-135.32-17.815s-70.848-62.599-83.089-108.283c-16.485-61.52-35.703-133.245-52.188-194.764-12.241-45.684-5.833-94.361 17.815-135.32s62.599-70.848 108.283-83.089c0.034-0.010 0.068-0.018 0.102-0.028 45.684-12.241 94.36-5.833 135.32 17.815 39.944 23.062 69.358 60.677 82.136 104.898zM660.242 332.455c-6.812 23.374-28.61 22.715-29.056 22.713-119.912-0.375-237.931 0-237.931 0-15.51-0.372-25.863-10.649-29.055-22.713-2.033-7.682-3.22-12.003-4.782-17.846-2.516-9.421-2.524-9.419-0.115-0.43-8.132-30.347-27.986-56.221-55.194-71.93s-59.543-19.966-89.891-11.834l-0.102 0.027c-30.347 8.132-56.221 27.985-71.93 55.194s-19.966 59.543-11.834 89.891c16.484 61.52 35.702 133.245 52.187 194.764 8.132 30.347 27.985 56.221 55.194 71.931s59.543 19.966 89.89 11.834l0.102-0.028c20.26-5.428 38.526-16.081 53.104-30.66 5.614-5.614 13.228-8.768 21.167-8.768h220.449c7.939 0 15.553 3.153 21.167 8.768 14.578 14.578 32.845 25.231 53.104 30.66l0.102 0.028c30.347 8.132 62.682 3.875 89.891-11.834s47.063-41.584 55.194-71.931c16.484-61.52 35.702-133.245 52.187-194.764 8.132-30.347 3.875-62.682-11.834-89.891s-41.584-47.063-71.931-55.194l-0.102-0.027c-30.347-8.132-62.681-3.875-89.891 11.834-26.94 15.554-46.67 41.074-54.95 71.034l-5.14 19.172zM416.003 295.299h-0.013l-0.081-0.219-0.626-1.432c0.257 0.54 0.498 1.091 0.721 1.651zM272.745 518.613h-29.72c-16.521 0-29.935-13.414-29.935-29.935s13.414-29.935 29.935-29.935h29.72v-29.72c0-16.521 13.413-29.935 29.935-29.935s29.935 13.414 29.935 29.935v29.72h29.719c16.522 0 29.935 13.414 29.935 29.935s-13.413 29.935-29.935 29.935h-29.719v29.72c0 16.521-13.414 29.935-29.935 29.935s-29.935-13.414-29.935-29.935v-29.72z" />
<glyph unicode="&#xe923;" d="M690.297 430.771c0 17.485 14.195 31.681 31.681 31.681s31.681-14.196 31.681-31.681c0-17.486-14.195-31.682-31.681-31.682s-31.681 14.196-31.681 31.682zM779.885 520.359c17.486 0 31.682-14.195 31.682-31.681s-14.196-31.681-31.682-31.681c-17.485 0-31.681 14.195-31.681 31.681s14.196 31.681 31.681 31.681zM664.070 520.359c17.485 0 31.681-14.195 31.681-31.681s-14.196-31.681-31.681-31.681c-17.486 0-31.682 14.195-31.682 31.681s14.196 31.681 31.682 31.681zM690.297 546.586c0 17.486 14.195 31.682 31.681 31.682s31.681-14.196 31.681-31.682c0-17.485-14.195-31.681-31.681-31.681s-31.681 14.196-31.681 31.681z" />
<glyph unicode="&#xe924;" d="M610.776 883.322c0 0-193.172 0-339.069 0-104.705 0-189.586-84.88-189.586-189.585 0-140.793 0-344.898 0-485.691 0-104.705 84.88-189.585 189.585-189.585 140.793 0 344.898 0 485.691 0 104.705 0 189.585 84.88 189.585 189.585 0 160.123 0 383.122 0 383.122 0 16.522-13.414 29.935-29.935 29.935s-29.935-13.413-29.935-29.935v-383.12c-0.001-71.642-58.076-129.717-129.714-129.718-0.004 0-485.692 0-485.692 0-71.641 0.001-129.716 58.076-129.717 129.714 0 0.004 0 485.692 0 485.692 0.001 71.642 58.077 129.717 129.717 129.717 145.897 0 339.069 0 339.069 0 16.521 0 29.935 13.414 29.935 29.935s-13.414 29.935-29.935 29.935zM245.141 291.241c0-60.619 49.141-109.761 109.76-109.761 87.042 0 225.522 0 312.564 0 60.618 0 109.76 49.141 109.76 109.761 0 87.042 0 225.522 0 312.563 0 60.619-49.141 109.761-109.76 109.761-87.042 0-225.522 0-312.564 0-60.619 0-109.76-49.141-109.76-109.76 0-87.042 0-225.522 0-312.564zM305.010 291.239v312.565c0 27.554 22.336 49.892 49.891 49.892 87.042 0 225.522 0 312.564 0 27.553 0 49.891-22.337 49.891-49.892 0-87.041 0-225.521 0-312.563 0-27.554-22.337-49.892-49.891-49.892-87.042 0-225.522 0-312.564 0-27.553 0-49.89 22.336-49.891 49.89zM423.622 341.363v-49.005c0-16.521 13.414-29.935 29.935-29.935s29.935 13.414 29.935 29.935v27.812c1.703-0.080 3.414-0.121 5.129-0.12 13.143 0 26.769 0 39.912 0 4.99-0.001 9.944 0.339 14.828 1.006v-28.698c0-16.521 13.414-29.935 29.935-29.935s29.935 13.414 29.935 29.935v57.031c0.989 0.918 1.96 1.854 2.915 2.809 2.484 2.485 4.837 5.076 7.056 7.765h57.633c16.522 0 29.935 13.414 29.935 29.935s-13.413 29.935-29.935 29.935h-32.996c0.302 3.305 0.454 6.633 0.454 9.978v39.912c0 3.345-0.152 6.674-0.454 9.978h32.996c16.522 0 29.935 13.414 29.935 29.935s-13.413 29.935-29.935 29.935h-57.633c-2.219 2.689-4.572 5.28-7.056 7.765-0.955 0.955-1.926 1.891-2.915 2.809v57.031c0 16.522-13.413 29.935-29.935 29.935s-29.935-13.413-29.935-29.935v-28.697c-4.884 0.666-9.84 1.006-14.828 1.006-13.143 0-26.769 0-39.912 0-1.715 0-3.425-0.040-5.129-0.12v27.811c0 16.522-13.413 29.935-29.935 29.935s-29.935-13.413-29.935-29.935v-49.004c-4.445-3.266-8.665-6.884-12.615-10.835-2.485-2.485-4.837-5.076-7.056-7.765h-47.934c-16.521 0-29.935-13.413-29.935-29.935s13.414-29.935 29.935-29.935h23.295c-0.302-3.305-0.454-6.633-0.454-9.978 0-13.143 0-26.769 0-39.912 0-3.345 0.152-6.674 0.454-9.978h-23.295c-16.521 0-29.935-13.413-29.935-29.935s13.414-29.935 29.935-29.935h47.934c2.219-2.689 4.571-5.28 7.056-7.765 3.949-3.949 8.17-7.567 12.615-10.834zM578.422 469.721v-39.912c0-13.232-5.256-25.922-14.613-35.279s-22.046-14.613-35.278-14.612h-39.913c-13.232-0.001-25.922 5.256-35.278 14.612s-14.613 22.047-14.613 35.279v39.912c0 13.232 5.256 25.922 14.613 35.279s22.046 14.613 35.278 14.613h39.913c13.232 0 25.922-5.256 35.278-14.613s14.613-22.046 14.613-35.279z" />
<glyph unicode="&#xe925;" d="M946.982 693.737v-485.691c0-104.705-84.88-189.585-189.585-189.585-140.793 0-344.898 0-485.691 0-104.705 0-189.585 84.88-189.585 189.585 0 140.793 0 344.898 0 485.691 0 104.705 84.88 189.585 189.585 189.585 140.793 0 344.898 0 485.691 0 104.705 0 189.585-84.88 189.585-189.585zM887.113 317.806v375.932c-0.001 71.639-58.076 129.714-129.716 129.715 0 0-485.689 0-485.692 0-71.639-0.001-129.714-58.076-129.715-129.717v-375.93h49.891c16.522 0 29.935-13.414 29.935-29.935s-13.413-29.935-29.935-29.935h-49.891v-49.893c0.001-71.638 58.076-129.713 129.717-129.714 0 0 485.688 0 485.692 0 71.638 0.001 129.713 58.076 129.714 129.716v49.892h-56.628c-16.521 0-29.935 13.414-29.935 29.935s13.414 29.935 29.935 29.935h56.628z" />
<glyph unicode="&#xe926;" d="M232.945 398.993h109.76c16.521 0 29.935 13.413 29.935 29.935s-13.414 29.935-29.935 29.935h-109.76c-16.522 0-29.935-13.414-29.935-29.935s13.413-29.935 29.935-29.935zM232.945 558.643h109.76c16.521 0 29.935 13.414 29.935 29.935s-13.414 29.935-29.935 29.935h-109.76c-16.522 0-29.935-13.413-29.935-29.935s13.413-29.935 29.935-29.935z" />
<glyph unicode="&#xe927;" d="M143.142 89.669v558.777c0 16.522-13.414 29.935-29.935 29.935s-29.935-13.413-29.935-29.935v-558.777c0-16.521 13.413-29.935 29.935-29.935s29.935 13.414 29.935 29.935zM941.395 608.534c0 50.281-19.974 98.503-55.529 134.057s-83.775 55.529-134.057 55.528c0 0-389.147 0-389.147 0-50.283 0-98.505-19.974-134.059-55.528s-55.528-83.775-55.528-134.057c0-63.395 0-136.169 0-199.563 0-50.281 19.974-98.503 55.528-134.058s83.776-55.528 134.058-55.528c0 0 389.146 0 389.146 0 50.284 0 98.505 19.974 134.059 55.528s55.529 83.776 55.529 134.058c0 63.394 0 136.168 0 199.563zM881.526 608.534c0-63.395 0-136.169 0-199.563 0-34.403-13.666-67.397-37.993-91.724s-57.32-37.992-91.723-37.992c-116.213 0-272.936 0-389.148 0-34.403 0-67.397 13.666-91.724 37.992s-37.992 57.321-37.992 91.724c0 63.394 0 136.168 0 199.563 0 34.403 13.666 67.396 37.992 91.723s57.321 37.993 91.724 37.992c116.212 0 272.935 0 389.148 0 34.403 0.001 67.397-13.665 91.723-37.992s37.993-57.32 37.993-91.723zM610.679 481.644c0.756-2.832 1.148-5.772 1.148-8.753 0-0.009 0-0.017 0-0.025 0-9.007-3.578-17.645-9.947-24.014s-15.007-9.947-24.013-9.947h-0.026c-9.006 0-17.645 3.579-24.013 9.947-11.683 11.683-30.652 11.683-42.334 0s-11.683-30.651 0-42.334c17.596-17.597 41.462-27.482 66.346-27.482h0.026c24.884 0 48.751 9.886 66.347 27.482s27.481 41.462 27.481 66.347c0 0.008 0 0.016 0 0.025 0 13.146-2.759 26.007-7.955 37.808 2.035 2.002 4.33 3.756 6.843 5.207 0.007 0.005 0.014 0.009 0.022 0.013 7.8 4.503 17.070 5.723 25.77 3.392s16.117-8.022 20.62-15.823c0.005-0.007 0.009-0.014 0.013-0.022 4.503-7.799 5.723-17.069 3.392-25.769-4.276-15.959 5.209-32.387 21.167-36.663s32.387 5.209 36.663 21.167c6.44 24.038 3.069 49.648-9.374 71.199-0.004 0.008-0.009 0.015-0.012 0.022-12.442 21.551-32.937 37.277-56.973 43.718s-49.648 3.069-71.199-9.374c-0.008-0.004-0.015-0.009-0.022-0.012-11.331-6.542-21.052-15.31-28.661-25.652-2.891 0.762-5.694 1.908-8.328 3.429-0.008 0.004-0.015 0.009-0.022 0.012-7.8 4.503-13.492 11.921-15.823 20.621s-1.111 17.969 3.392 25.77c0.005 0.007 0.009 0.014 0.013 0.022 4.503 7.8 11.92 13.491 20.62 15.823 15.959 4.276 25.443 20.703 21.167 36.662s-20.703 25.443-36.662 21.167c-24.037-6.441-44.531-22.166-56.973-43.717-0.004-0.008-0.009-0.015-0.012-0.022-12.443-21.551-15.814-47.162-9.374-71.199s22.167-44.531 43.718-56.973c0.007-0.005 0.014-0.009 0.022-0.013 11.454-6.612 24.054-10.663 36.954-12.040z" />
<glyph unicode="&#xe928;" d="M557.794 718.294c-148.791 0-269.411-120.619-269.411-269.411v0c0-148.791 120.619-269.411 269.411-269.411l6.953 0.088c145.572 3.682 262.457 122.852 262.457 269.323v0c0 148.791-120.619 269.411-269.411 269.411-9.948 0-9.948 0 0 0zM555.146 658.541c-8.619 0.755-8.619 0.756 0 0 0 0 1.104-0.077 1.104-0.077h0.005l1.538-0.039c115.726 0 209.542-93.815 209.542-209.542 0-0.13 0.001-0.261 0.002-0.391-0.003-115.337-93.817-209.151-209.544-209.151 0 0 0 0 0 0-115.726 0-209.542 93.815-209.542 209.542l-0.014-0.935-0.039-0.583 0.054 1.518c0 115.726 93.815 209.542 209.542 209.542-0.515 0-1.028 0.013-1.538 0.039h-0.005c-0.12 0.006-0.239 0.012-0.358 0.020l-0.746 0.057z" />
<glyph unicode="&#xe929;" d="M926.986 628.49c0 50.281-19.974 98.503-55.529 134.057s-83.775 55.529-134.057 55.529c-108.301 0-250.914 0-359.214 0-50.28 0-98.502-19.974-134.057-55.529s-55.529-83.775-55.529-134.057c0-108.301 0-250.914 0-359.214 0-50.28 19.974-98.502 55.529-134.057s83.776-55.529 134.057-55.529c108.301 0 250.914 0 359.214 0 50.281 0 98.503 19.974 134.057 55.529s55.529 83.776 55.529 134.057v359.214zM867.117 628.49v-359.214c0-34.402-13.666-67.396-37.993-91.723s-57.32-37.993-91.723-37.993h-359.214c-34.402 0-67.396 13.667-91.723 37.993s-37.993 57.321-37.993 91.723c0 108.301 0 250.914 0 359.214 0 34.403 13.667 67.397 37.993 91.723s57.321 37.993 91.723 37.993h359.214c34.403 0 67.397-13.666 91.723-37.993s37.993-57.32 37.993-91.723zM157.351 224.144v449.479c0 16.521-13.413 29.935-29.935 29.935s-29.935-13.414-29.935-29.935v-449.479c0-16.522 13.414-29.935 29.935-29.935s29.935 13.413 29.935 29.935zM476.708 441.928c-9.471 2.15-18.223 6.941-25.2 13.917-1.681 1.681-3.236 3.466-4.655 5.336-5.89 7.763-15.19 12.172-24.929 11.82s-18.694-5.422-24.009-13.59c-11.728-18.024-18.107-39.199-18.107-61.032 0-0.011 0-0.022 0-0.033 0-29.68 11.791-58.145 32.778-79.132s49.452-32.778 79.132-32.778h0.033c29.681 0 58.145 11.79 79.132 32.778 16.856 16.856 27.78 38.537 31.42 61.798 2.866-9.27 3.091-19.239 0.54-28.761-0.616-2.297-1.384-4.535-2.294-6.701-3.777-8.982-2.947-19.24 2.228-27.498s14.043-13.48 23.773-13.998c21.473-1.144 43.001 3.918 61.908 14.834 0.010 0.006 0.019 0.011 0.029 0.017 25.703 14.84 44.459 39.283 52.142 67.952s3.66 59.215-11.18 84.918c-0.006 0.010-0.011 0.019-0.016 0.029-14.841 25.703-39.284 44.459-67.953 52.142-23.39 6.268-48.031 4.745-70.272-4.093 6.688 7.489 15.462 12.934 25.305 15.572 2.297 0.615 4.619 1.069 6.95 1.363 9.668 1.22 18.137 7.069 22.7 15.679s4.652 18.901 0.236 27.588c-9.746 19.168-24.894 35.281-43.802 46.197-0.009 0.006-0.018 0.011-0.028 0.016-25.704 14.841-56.25 18.862-84.919 11.18s-53.112-26.437-67.952-52.141c-0.006-0.010-0.011-0.019-0.016-0.029-14.84-25.703-18.862-56.25-11.18-84.919 6.214-23.193 19.676-43.62 38.206-58.433zM543.698 395.389c-0.716-12.724-6.090-24.78-15.149-33.84-9.76-9.759-22.996-15.242-36.799-15.242h-0.033c-13.801 0-27.039 5.483-36.798 15.242-8.164 8.164-13.336 18.763-14.793 30.092 14.908-7.115 31.348-10.907 48.18-10.907h0.033c19.583 0 38.637 5.132 55.359 14.655zM664.136 374.497c-1.292 16.468-6.228 32.602-14.644 47.18-0.006 0.009-0.011 0.018-0.016 0.028-9.792 16.96-23.764 30.894-40.372 40.615 11.378 5.742 24.506 7.115 36.881 3.799 13.332-3.572 24.699-12.294 31.599-24.246 0.006-0.010 0.011-0.019 0.016-0.029 6.901-11.953 8.772-26.158 5.2-39.489-2.989-11.153-9.582-20.931-18.664-27.858zM566.602 577.386c-13.617-9.353-25.12-21.695-33.536-36.271-0.006-0.010-0.011-0.019-0.016-0.029-9.792-16.96-14.873-36.027-14.988-55.27-10.661 6.982-18.415 17.665-21.731 30.041-3.572 13.331-1.702 27.536 5.199 39.489 0.006 0.010 0.011 0.019 0.017 0.029 6.901 11.953 18.267 20.674 31.598 24.246 11.154 2.989 22.918 2.168 33.458-2.235z" />
<glyph unicode="&#xe92a;" d="M349.654 18.461h324.692c16.521 0 29.935 13.414 29.935 29.935s-13.414 29.935-29.935 29.935h-324.692c-16.521 0-29.935-13.414-29.935-29.935s13.414-29.935 29.935-29.935zM591.826 854.637h-254.073c-50.281 0-98.503-19.973-134.058-55.528s-55.529-83.776-55.529-134.058c0-105.432 0-243.063 0-348.495 0-50.281 19.974-98.503 55.529-134.058s83.776-55.528 134.058-55.528c105.431 0 243.063 0 348.494 0 50.281 0 98.503 19.973 134.058 55.528s55.528 83.775 55.529 134.057v290.618c0 16.522-13.414 29.935-29.935 29.935s-29.935-13.413-29.935-29.935v-290.616c-0.001-34.406-13.667-67.399-37.993-91.725s-57.321-37.992-91.724-37.992h-348.494c-34.403 0-67.397 13.666-91.724 37.993s-37.993 57.32-37.993 91.723v348.495c0 34.403 13.666 67.397 37.993 91.724s57.321 37.992 91.724 37.992h254.073c16.521 0 29.935 13.414 29.935 29.935s-13.414 29.935-29.935 29.935zM256.676 345.24c0.001-60.618 49.141-109.76 109.76-109.76h291.129c60.618 0 109.759 49.141 109.76 109.76v291.128c-0.001 60.619-49.141 109.76-109.76 109.76h-291.129c-60.618 0-109.759-49.141-109.76-109.76v-291.128zM316.545 345.238v291.13c0.001 27.554 22.337 49.89 49.89 49.891 0.003 0 291.129 0 291.129 0 27.554-0.001 49.891-22.336 49.892-49.889 0-0.004 0-291.13 0-291.13-0.001-27.554-22.337-49.89-49.89-49.891-0.003 0-291.129 0-291.129 0-27.554 0.001-49.891 22.336-49.892 49.889z" />
<glyph unicode="&#xe92b;" d="M875.834 665.052c0 50.281-19.974 98.503-55.529 134.058s-83.776 55.528-134.058 55.528c-105.431 0-243.063 0-348.494 0-50.281 0-98.503-19.973-134.058-55.528s-55.529-83.776-55.529-134.058c0-105.432 0-243.063 0-348.495 0-50.281 19.974-98.503 55.529-134.058s83.776-55.528 134.058-55.528c105.431 0 243.063 0 348.494 0 50.281 0 98.503 19.974 134.058 55.528s55.529 83.776 55.529 134.058v348.495zM815.965 665.052v-348.495c0-34.403-13.666-67.397-37.993-91.723s-57.321-37.993-91.724-37.993h-348.494c-34.403 0-67.397 13.666-91.724 37.993s-37.993 57.32-37.993 91.723v348.495c0 34.403 13.666 67.397 37.993 91.724s57.321 37.992 91.724 37.992h348.494c34.403 0 67.397-13.666 91.724-37.992s37.993-57.321 37.993-91.724zM748.558 511.971l-57.696 57.696c-39.305 39.304-103.029 39.304-142.334 0l-115.389-115.389c-15.926-15.925-41.743-15.925-57.667-0.003-0.002 0.003-57.697 57.697-57.697 57.697-11.683 11.683-30.651 11.683-42.334 0s-11.683-30.651 0-42.334l57.696-57.696c39.305-39.304 103.029-39.304 142.334 0l115.389 115.39c15.926 15.924 41.743 15.924 57.667 0.002 0.002-0.002 57.697-57.697 57.697-57.697 11.683-11.683 30.651-11.683 42.334 0s11.683 30.651 0 42.334z" />
<glyph unicode="&#xe92c;" d="M830.163 364.676c0 51.932-20.63 101.738-57.352 138.459s-86.528 57.352-138.46 57.352c-0.045 0-0.090 0-0.135 0-51.932 0-101.738-20.629-138.459-57.352s-57.352-86.528-57.352-138.459c0-0.045 0-0.090 0-0.135 0-51.933 20.629-101.738 57.352-138.46s86.528-57.352 138.459-57.352c0.045 0 0.090 0 0.135 0 51.933 0 101.738 20.63 138.46 57.352s57.352 86.528 57.352 138.46c0 0.045 0 0.090 0 0.135zM242.824 279.352v-80.689c0-16.521 13.413-29.935 29.935-29.935s29.935 13.414 29.935 29.935v80.688c0 16.522-13.414 29.935-29.935 29.935s-29.935-13.414-29.935-29.935zM770.294 364.676c0-0.045 0-0.090 0-0.135 0-36.055-14.323-70.632-39.816-96.127s-60.072-39.816-96.127-39.816c-0.045 0-0.090 0-0.135 0-36.054 0-70.631 14.323-96.126 39.816s-39.816 60.072-39.816 96.127c0 0.045 0 0.090 0 0.135 0 36.054 14.322 70.631 39.816 96.126s60.072 39.816 96.126 39.816c0.045 0 0.090 0 0.135 0 36.055 0 70.632-14.322 96.127-39.816s39.816-60.072 39.816-96.126zM249.309 530.552c17.485 0 31.681-14.195 31.681-31.681s-14.196-31.681-31.681-31.681c-17.486 0-31.682 14.196-31.682 31.681s14.196 31.681 31.682 31.681zM349.090 530.552c17.486 0 31.682-14.195 31.682-31.681s-14.196-31.681-31.682-31.681c-17.485 0-31.681 14.196-31.681 31.681s14.196 31.681 31.681 31.681zM287.495 688.457h449.479c16.522 0 29.935 13.413 29.935 29.935s-13.413 29.935-29.935 29.935h-449.479c-16.521 0-29.935-13.414-29.935-29.935s13.414-29.935 29.935-29.935z" />
<glyph unicode="&#xe92d;" d="M491.885 249.418c10.778 0 20.725 5.794 26.041 15.17s5.18 20.887-0.355 30.136c-12.523 20.925-19.296 45.022-19.296 69.817v0.135c0 36.054 14.322 70.631 39.816 96.126s60.072 39.816 96.126 39.816h0.135c36.055 0 70.632-14.322 96.127-39.816s39.816-60.072 39.816-96.126v-0.135c0-23.868-6.277-47.090-17.918-67.457-5.803-10.154-5.161-22.757 1.642-32.269s18.524-14.19 30.007-11.98c36.947 7.114 71.23 25.124 98.216 52.11 35.554 35.554 55.528 83.775 55.529 134.057v19.957c-0.001 50.281-19.975 98.503-55.529 134.057s-83.776 55.528-134.058 55.528c-143.187 0-352.195 0-495.381 0-50.281 0-98.503-19.973-134.057-55.528s-55.529-83.775-55.529-134.057v-19.957c0-50.281 19.974-98.503 55.529-134.057s83.775-55.529 134.057-55.528c0 0 239.082 0 239.082 0zM719.547 364.618c0.001 22.61-8.981 44.295-24.97 60.283s-37.672 24.971-60.284 24.971c-0.007 0-0.013 0-0.020 0-22.61 0-44.295-8.982-60.283-24.971s-24.971-37.672-24.971-60.283c0-0.007 0-0.013 0-0.020 0-22.611 8.982-44.295 24.971-60.284s37.672-24.971 60.283-24.97c0.007 0 0.013 0 0.020 0 22.611-0.001 44.295 8.981 60.284 24.97s24.971 37.672 24.97 60.284v0.020zM446.363 309.287h-193.561c-34.403-0.001-67.397 13.665-91.723 37.992s-37.993 57.319-37.993 91.721c0 0.003 0 19.958 0 19.958 0 34.405 13.666 67.398 37.993 91.724s57.32 37.992 91.723 37.992h495.381c34.403 0 67.397-13.666 91.724-37.992s37.992-57.319 37.993-91.721c0-0.004 0-19.959 0-19.959-0.001-34.404-13.667-67.397-37.993-91.723-3.717-3.717-7.635-7.183-11.73-10.391 1.325 9.142 1.985 18.363 1.985 27.653v0.135c0 51.932-20.63 101.738-57.352 138.459s-86.528 57.352-138.46 57.352h-0.135c-51.932 0-101.738-20.629-138.459-57.352s-57.352-86.528-57.352-138.459v-0.135c0-18.871 2.723-37.461 7.953-55.243l0.005-0.011zM659.678 364.618v-0.020c0.001-6.733-2.674-13.189-7.434-17.95s-11.217-7.434-17.95-7.434h-0.020c-6.732 0-13.189 2.674-17.949 7.434s-7.435 11.217-7.435 17.95v0.020c0 6.732 2.674 13.189 7.435 17.949s11.217 7.435 17.949 7.435h0.020c6.733 0 13.189-2.674 17.95-7.435s7.435-11.217 7.434-17.949z" />
<glyph unicode="&#xe92e;" d="M789.91 198.068c0-17.486-14.195-31.681-31.681-31.681s-31.681 14.195-31.681 31.681c0 17.486 14.195 31.681 31.681 31.681s31.681-14.195 31.681-31.681zM261.067 231.496c17.486 0 31.681-14.196 31.681-31.682s-14.195-31.681-31.681-31.681c-17.486 0-31.681 14.196-31.681 31.681s14.195 31.682 31.681 31.682zM759.976 726.911c17.486 0 31.682-14.195 31.682-31.681s-14.196-31.681-31.682-31.681c-17.485 0-31.681 14.195-31.681 31.681s14.196 31.681 31.681 31.681zM294.495 696.977c0-17.485-14.196-31.681-31.682-31.681s-31.681 14.196-31.681 31.681c0 17.486 14.196 31.682 31.681 31.682s31.682-14.196 31.682-31.682z" />
<glyph unicode="&#xe92f;" d="M630.634 776.151c-36.965 13.332-76.822 20.607-118.365 20.607s-81.401-7.275-118.365-20.607c0.013 0.002-29.859 29.874-29.859 29.874-28.054 28.054-66.104 43.815-105.779 43.815s-77.723-15.76-105.778-43.815c-0.038-0.037-0.076-0.075-0.113-0.113-28.054-28.054-43.816-66.103-43.815-105.778s15.76-77.724 43.815-105.779c0 0 30.531-30.531 30.531-30.531-12.867-36.381-19.874-75.53-19.874-116.302 0-41.543 7.274-81.401 20.607-118.365-0.003 0.012-32.249-32.233-32.249-32.233-28.054-28.054-43.815-66.103-43.815-105.778s15.76-77.724 43.815-105.779c0.037-0.037 0.076-0.076 0.113-0.113 28.054-28.054 66.104-43.815 105.779-43.815s77.724 15.76 105.778 43.815c0 0 32.905 32.905 32.905 32.905 36.382-12.866 75.531-19.874 116.303-19.874s79.919 7.007 116.314 19.877c-0.011-0.003 31.911-31.924 31.911-31.924 28.054-28.054 66.104-43.816 105.779-43.816s77.724 15.76 105.779 43.815c0.037 0.038 0.075 0.076 0.112 0.113 28.054 28.054 43.816 66.104 43.816 105.779s-15.761 77.724-43.816 105.779c0 0-31.262 31.262-31.262 31.262 13.33 36.952 20.605 76.81 20.605 118.353 0 40.771-7.007 79.919-19.876 116.314 0.002-0.011 31.517 31.504 31.517 31.504 28.054 28.053 43.815 66.103 43.815 105.778s-15.76 77.724-43.815 105.779c-0.037 0.037-0.076 0.075-0.113 0.113-28.054 28.054-66.104 43.815-105.779 43.815s-77.723-15.761-105.778-43.816l-30.843-30.857zM626.112 713.604c11.253-4.828 24.311-2.315 32.969 6.342l44.728 44.728c16.827 16.827 39.648 26.28 63.444 26.28s46.618-9.453 63.445-26.279c0.037-0.038 0.076-0.076 0.113-0.113 16.827-16.827 26.279-39.649 26.279-63.445s-9.453-46.617-26.279-63.444l-45.29-45.29c-8.607-8.607-11.145-21.567-6.422-32.784 14.52-34.481 22.535-72.351 22.535-112.077 0-40.413-8.294-78.904-23.285-113.844-4.828-11.253-2.316-24.312 6.342-32.969l45.136-45.136c16.827-16.827 26.28-39.648 26.28-63.444s-9.454-46.618-26.28-63.445c-0.037-0.037-0.075-0.075-0.113-0.112-16.826-16.827-39.648-26.28-63.444-26.28s-46.618 9.454-63.444 26.28l-45.698 45.697c-8.606 8.607-21.566 11.145-32.783 6.422-34.482-14.52-72.351-22.536-112.078-22.536s-77.596 8.016-112.078 22.536c-11.217 4.723-24.178 2.185-32.783-6.422l-46.681-46.681c-16.827-16.827-39.648-26.279-63.444-26.279s-46.618 9.453-63.445 26.279c-0.037 0.037-0.075 0.076-0.113 0.113-16.827 16.827-26.279 39.648-26.279 63.444s9.454 46.618 26.28 63.445l46.118 46.119c8.658 8.658 11.171 21.717 6.343 32.969-14.991 34.941-23.286 73.431-23.286 113.844 0 39.726 8.016 77.596 22.535 112.077 4.723 11.217 2.185 24.178-6.421 32.784l-44.307 44.306c-16.827 16.827-26.279 39.649-26.279 63.445s9.453 46.617 26.279 63.444c0.037 0.038 0.075 0.076 0.113 0.113 16.827 16.827 39.648 26.279 63.444 26.279s46.618-9.453 63.445-26.279l43.745-43.746c8.658-8.658 21.717-11.17 32.969-6.342 34.941 14.991 73.431 23.286 113.844 23.286s78.903-8.294 113.844-23.286zM512.268 637.108c0 0 0 0 0 0v0c-104.705 0-189.586-84.88-189.586-189.585 0 0 0-0.001 0-0.001v0.001c0-104.706 84.881-189.586 189.586-189.586v0c0 0 159.651 0 159.651 0 16.532 0 29.935 13.402 29.935 29.935 0 0 0 79.825 0 159.651 0 104.705-84.881 189.585-189.586 189.585zM512.268 577.239h0.025c71.579-0.011 129.692-58.13 129.692-129.716 0-71.593-58.124-129.717-129.717-129.717 0 0 0 0 0 0-71.592 0-129.717 58.124-129.717 129.717s58.125 129.716 129.717 129.716z" />
<glyph unicode="&#xe930;" d="M626.28 327.608c9.274 5.344 14.989 15.234 14.989 25.937s-5.715 20.593-14.989 25.937c0 0-198.783 114.538-198.783 114.538-9.262 5.336-20.668 5.329-29.923-0.020s-14.956-15.228-14.956-25.917c0 0 0-229.075 0-229.075 0-10.689 5.7-20.568 14.956-25.917s20.661-5.357 29.923-0.020c0 0 198.783 114.538 198.783 114.538zM551.376 353.545l-108.889-62.741c0-0.001 0 125.482 0 125.482l108.889-62.741z" />
<glyph unicode="&#xe931;" d="M43.36 648.544c0 50.28 19.974 98.502 55.528 134.057s83.776 55.529 134.058 55.529c158.541 0 400.236 0 558.777 0 50.281 0 98.503-19.974 134.057-55.529s55.529-83.776 55.529-134.057v-439.039c0-50.28-19.974-98.502-55.529-134.057s-83.775-55.529-134.057-55.529c-158.541 0-400.236 0-558.777 0-50.281 0-98.503 19.974-134.058 55.529s-55.528 83.776-55.528 134.057v439.039zM103.229 594.697v-385.193c0-34.403 13.666-67.396 37.992-91.723s57.321-37.993 91.724-37.993c158.541 0 400.236 0 558.777 0 34.403 0 67.397 13.666 91.723 37.993s37.993 57.32 37.993 91.723v439.039c0 34.403-13.666 67.396-37.993 91.723s-57.32 37.993-91.723 37.993c-158.541 0-400.236 0-558.777 0-34.403 0-67.397-13.666-91.724-37.993-22.903-22.903-36.357-53.489-37.853-85.701h648.441c16.522 0 29.935-13.414 29.935-29.935s-13.413-29.935-29.935-29.935h-648.581zM221.22 748.326c17.485 0 31.681-14.196 31.681-31.681s-14.196-31.682-31.681-31.682c-17.486 0-31.682 14.196-31.682 31.682s14.196 31.681 31.682 31.681zM321.001 748.326c17.486 0 31.682-14.196 31.682-31.681s-14.196-31.682-31.682-31.682c-17.485 0-31.681 14.196-31.681 31.682s14.196 31.681 31.681 31.681zM420.784 748.326c17.486 0 31.681-14.196 31.681-31.681s-14.195-31.682-31.681-31.682c-17.486 0-31.681 14.196-31.681 31.682s14.195 31.681 31.681 31.681z" />
<glyph unicode="&#xe932;" d="M659.591 818.076h-268.163v62.039c0 16.521-13.414 29.935-29.935 29.935s-29.935-13.414-29.935-29.935v-62.042c-49.901-0.278-97.698-20.22-133.002-55.526-32.159-32.159-51.572-74.681-54.986-119.713h-62.582c-16.521 0-29.935-13.414-29.935-29.935s13.414-29.935 29.935-29.935h62.039v-268.163h-62.039c-16.521 0-29.935-13.413-29.935-29.935s13.414-29.935 29.935-29.935h62.582c3.414-45.032 22.827-87.554 54.986-119.713 35.305-35.305 83.101-55.248 133.002-55.525v-62.042c0-16.522 13.413-29.935 29.935-29.935s29.935 13.413 29.935 29.935v62.038h268.163v-62.038c0-16.522 13.414-29.935 29.935-29.935s29.935 13.413 29.935 29.935v64.062c40.058 5.9 77.449 24.528 106.425 53.505 32.159 32.159 51.571 74.681 54.985 119.713h62.582c16.522 0 29.935 13.414 29.935 29.935s-13.413 29.935-29.935 29.935h-62.039v268.163h62.039c16.522 0 29.935 13.414 29.935 29.935s-13.413 29.935-29.935 29.935h-62.582c-3.414 45.032-22.826 87.554-54.985 119.713-28.977 28.977-66.367 47.605-106.425 53.505v64.063c0 16.521-13.414 29.935-29.935 29.935s-29.935-13.414-29.935-29.935v-62.039zM691.828 139.56h-359.214c-34.403 0-67.397 13.667-91.723 37.993s-37.993 57.321-37.993 91.723c0 108.301 0 250.914 0 359.214 0 34.403 13.666 67.397 37.993 91.723s57.32 37.993 91.723 37.993h359.213c34.403 0 67.397-13.666 91.724-37.993s37.992-57.32 37.992-91.723v-359.214c0-34.402-13.666-67.396-37.992-91.723s-57.321-37.993-91.723-37.993zM342.592 448.883c0 0 0-28.57 0-59.869 0.001-60.619 49.141-109.76 109.761-109.76 37.541 0 82.197 0 119.738 0 60.618 0 109.76 49.141 109.76 109.76 0 37.541 0 82.197 0 119.738 0 60.619-49.141 109.76-109.76 109.76-31.3 0-59.869 0-59.869 0-16.522 0-29.935-13.413-29.935-29.935s13.413-29.935 29.935-29.935h59.867c27.556 0 49.892-22.336 49.892-49.889 0-0.003 0-119.74 0-119.74-0.001-27.554-22.336-49.89-49.89-49.891-0.003 0-119.739 0-119.739 0-27.554 0.001-49.891 22.336-49.892 49.889 0 0.004 0 59.871 0 59.871 0 16.522-13.413 29.935-29.935 29.935s-29.935-13.413-29.935-29.935zM711.784 680.128c17.486 0 31.681-14.196 31.681-31.682s-14.195-31.681-31.681-31.681c-17.486 0-31.681 14.196-31.681 31.681s14.195 31.682 31.681 31.682z" />
<glyph unicode="&#xe933;" d="M881.413 628.49c0.001 50.281-19.973 98.503-55.528 134.057s-83.776 55.529-134.058 55.529c-108.3 0-250.913 0-359.213 0-50.281 0-98.503-19.974-134.057-55.529s-55.529-83.775-55.529-134.057c0-108.301 0-250.914 0-359.214 0-50.28 19.974-98.502 55.529-134.057s83.775-55.529 134.057-55.529c67.106 0 141.46 0 193.302 0 50.281 0 98.503 19.974 134.058 55.529 46.97 46.97 118.941 118.941 165.911 165.911 35.555 35.555 55.529 83.776 55.528 134.058v193.302zM821.544 628.49v-193.302c0-34.403-13.666-67.397-37.992-91.724-46.971-46.97-118.941-118.94-165.911-165.911-24.327-24.327-57.321-37.993-91.724-37.993-51.842 0-126.196 0-193.302 0-34.403 0-67.397 13.666-91.723 37.993s-37.993 57.321-37.993 91.723c0 108.301 0 250.914 0 359.214 0 34.403 13.666 67.397 37.993 91.723s57.32 37.993 91.723 37.993h359.213c34.403 0 67.397-13.666 91.724-37.993s37.992-57.32 37.992-91.723zM342.592 389.014c0.001-60.619 49.141-109.76 109.761-109.76 37.541 0 82.197 0 119.738 0 60.618 0 109.76 49.141 109.76 109.76 0 37.541 0 82.197 0 119.738 0 60.619-49.141 109.76-109.76 109.76h-119.738c-60.619 0-109.76-49.141-109.761-109.76v-119.738zM402.461 389.012v119.74c0.001 27.554 22.337 49.891 49.89 49.891 0.003 0 119.739 0 119.739 0 27.555 0 49.891-22.336 49.892-49.889 0-0.003 0-119.74 0-119.74-0.001-27.554-22.336-49.89-49.89-49.891-0.003 0-119.739 0-119.739 0-27.554 0.001-49.891 22.336-49.892 49.889z" />
<glyph unicode="&#xe934;" d="M941.282 587.29c0 104.705-84.88 189.585-189.585 189.585-139.121 0-339.832 0-478.952 0-50.281 0-98.503-19.974-134.058-55.528s-55.528-83.776-55.528-134.058c0-86.45 0-192.938 0-279.388 0-50.281 19.974-98.503 55.529-134.057s83.775-55.529 134.057-55.529c127.166 0 298.799 0 391.998 0 50.891 0.001 99.645 20.461 135.294 56.778 26.83 27.333 60.331 61.461 86.955 88.584 34.796 35.448 54.291 83.137 54.29 132.808v190.805zM881.413 587.292v-190.807c0-33.985-13.338-66.615-37.146-90.869-26.625-27.123-60.125-61.251-86.955-88.583-24.392-24.849-57.749-38.848-92.568-38.849-0.004 0-391.999 0-391.999 0-34.403 0-67.397 13.666-91.723 37.993s-37.993 57.32-37.993 91.723c0 86.45 0 192.938 0 279.388 0 34.403 13.666 67.397 37.993 91.724s57.32 37.992 91.723 37.992c139.12 0 339.831 0 478.952 0 71.64 0 129.715-58.075 129.716-129.714zM412.439 616.564c-21.949 24.875-54.058 40.572-89.804 40.572-66.085 0-119.738-53.652-119.738-119.738s53.653-119.738 119.738-119.738c35.745 0 67.854 15.697 89.804 40.573 21.95-24.876 54.058-40.573 89.804-40.573 66.085 0 119.738 53.653 119.738 119.738s-53.653 119.738-119.738 119.738c-35.745 0-67.853-15.697-89.804-40.572zM322.636 597.267c33.043 0 59.869-26.826 59.869-59.869s-26.826-59.869-59.869-59.869c-33.043 0-59.869 26.827-59.869 59.869s26.826 59.869 59.869 59.869zM502.243 597.267c33.043 0 59.869-26.826 59.869-59.869s-26.826-59.869-59.869-59.869c-33.043 0-59.869 26.827-59.869 59.869s26.826 59.869 59.869 59.869z" />
<glyph unicode="&#xe935;" d="M123.306 258.010h548.565c16.522 0 29.935 13.413 29.935 29.935s-13.413 29.935-29.935 29.935h-548.565c-16.521 0-29.935-13.414-29.935-29.935s13.414-29.935 29.935-29.935z" />
</font>
</defs>
</svg>
