<?xml version="1.0" encoding="UTF-8"?>
<svg id="Layer_2" data-name="Layer 2" xmlns="http://www.w3.org/2000/svg" viewBox="0 0 684 684">
  <defs>
    <style>
      .cls-1 {
        fill: #fff;
      }

      .cls-2 {
        fill: #000;
      }
    </style>
  </defs>
  <g id="Layer_1-2" data-name="Layer 1">
    <g id="Insignia">
      <circle class="cls-2" cx="342" cy="342" r="342"/>
      <path class="cls-1" d="M567.5,295.94c-21.31-104.14-113.45-182.47-223.88-182.47-126.21,0-228.53,102.31-228.53,228.53s102.31,228.53,228.53,228.53c110.56,0,202.78-78.51,223.95-182.82h0s92.74,0,92.74,0h0c-22.18,155.05-155.52,274.23-316.7,274.23-176.7,0-319.94-143.24-319.94-319.94S166.92,22.06,343.62,22.06c161.18,0,294.52,119.19,316.7,274.23,0,0-92.75,0-92.75,0"/>
      <path class="cls-1" d="M557.91,319.15H218.38c10.75-58.51,62-102.84,123.62-102.84,53.29,0,98.84,33.17,117.12,79.98h0s95.15,0,95.15,0h.01c-20.99-97.96-108.06-171.39-212.28-171.39-119.9,0-217.1,97.2-217.1,217.1,0,7.72,.4,15.34,1.19,22.85h0s339.52,0,339.52,0h0c-10.75,58.51-62,102.84-123.62,102.84-53.29,0-98.84-33.17-117.12-79.98h0s-95.15,0-95.15,0h0c20.99,97.95,108.06,171.39,212.28,171.39,119.9,0,217.1-97.2,217.1-217.1,0-7.84-.42-15.58-1.23-23.21"/>
    </g>
  </g>
</svg>